<?xml version="1.0" encoding="utf-8" standalone="no"?>
<!DOCTYPE svg PUBLIC "-//W3C//DTD SVG 1.1//EN"
  "http://www.w3.org/Graphics/SVG/1.1/DTD/svg11.dtd">
<!-- Created with matplotlib (http://matplotlib.org/) -->
<svg height="720pt" version="1.1" viewBox="0 0 889 720" width="889pt" xmlns="http://www.w3.org/2000/svg" xmlns:xlink="http://www.w3.org/1999/xlink">
 <defs>
  <style type="text/css">
*{stroke-linecap:butt;stroke-linejoin:round;}
  </style>
 </defs>
 <g id="figure_1">
  <g id="patch_1">
   <path d="M 0 720 
L 889.2 720 
L 889.2 0 
L 0 0 
z
" style="fill:none;"/>
  </g>
  <g id="axes_1">
   <g id="patch_2">
    <path d="M 111.15 640.8 
L 800.28 640.8 
L 800.28 86.4 
L 111.15 86.4 
z
" style="fill:none;"/>
   </g>
   <g id="PolyCollection_1">
    <path clip-path="url(#p6a5f16dfca)" d="M 111.15 600.869694 
L 111.15 600.869694 
L 115.403889 602.177703 
L 119.657778 602.96123 
L 123.911667 602.491703 
L 128.165556 604.138237 
L 132.419444 605.334452 
L 136.673333 606.311974 
L 140.927222 604.84067 
L 145.181111 603.712282 
L 149.435 604.278072 
L 153.688889 604.940726 
L 157.942778 605.182224 
L 162.196667 605.04444 
L 166.450556 605.920453 
L 170.704444 606.088802 
L 174.958333 603.998396 
L 179.212222 604.902379 
L 183.466111 604.723609 
L 187.72 604.58194 
L 191.973889 604.568415 
L 196.227778 604.206298 
L 200.481667 605.325519 
L 204.735556 605.54163 
L 208.989444 605.541664 
L 213.243333 605.754934 
L 217.497222 604.306844 
L 221.751111 605.530153 
L 226.005 605.500939 
L 230.258889 605.417514 
L 234.512778 606.189216 
L 238.766667 606.287237 
L 243.020556 606.855853 
L 247.274444 606.18325 
L 251.528333 606.081485 
L 255.782222 606.648131 
L 260.036111 605.666435 
L 264.29 607.506363 
L 268.543889 607.064981 
L 272.797778 606.841627 
L 277.051667 606.799249 
L 281.305556 607.166685 
L 285.559444 607.832551 
L 289.813333 606.809616 
L 294.067222 607.555018 
L 298.321111 609.317534 
L 302.575 607.15272 
L 306.828889 608.781374 
L 311.082778 609.930307 
L 315.336667 607.968635 
L 319.590556 608.224094 
L 323.844444 607.814826 
L 328.098333 608.41521 
L 332.352222 607.990313 
L 336.606111 608.955172 
L 340.86 608.72992 
L 345.113889 608.966059 
L 349.367778 608.767509 
L 353.621667 606.826869 
L 357.875556 608.036835 
L 362.129444 607.425739 
L 366.383333 608.671816 
L 370.637222 609.163693 
L 374.891111 609.683085 
L 379.145 608.388227 
L 383.398889 609.346492 
L 387.652778 609.429007 
L 391.906667 610.109086 
L 396.160556 609.696381 
L 400.414444 610.504254 
L 404.668333 608.73866 
L 408.922222 611.029944 
L 413.176111 608.570852 
L 417.43 609.820207 
L 421.683889 609.910894 
L 425.937778 610.89233 
L 430.191667 610.197371 
L 434.445556 610.634279 
L 438.699444 610.272553 
L 442.953333 610.683121 
L 447.207222 609.943476 
L 451.461111 608.992282 
L 455.715 609.974677 
L 459.968889 609.245792 
L 464.222778 610.6991 
L 468.476667 611.54055 
L 472.730556 611.846266 
L 476.984444 611.599395 
L 481.238333 610.271743 
L 485.492222 610.814859 
L 489.746111 611.254363 
L 494 611.502012 
L 498.253889 611.288512 
L 502.507778 611.295028 
L 506.761667 611.188309 
L 511.015556 611.187614 
L 515.269444 611.765811 
L 519.523333 612.438617 
L 523.777222 612.720915 
L 528.031111 611.633461 
L 532.285 612.307671 
L 536.538889 611.323962 
L 540.792778 612.357831 
L 545.046667 611.787048 
L 549.300556 612.27005 
L 553.554444 612.820593 
L 557.808333 612.28761 
L 562.062222 613.072104 
L 566.316111 612.029855 
L 570.57 610.664946 
L 574.823889 611.315393 
L 579.077778 611.754486 
L 583.331667 609.322658 
L 587.585556 611.757861 
L 591.839444 610.175903 
L 596.093333 611.899811 
L 600.347222 611.198726 
L 604.601111 611.757192 
L 608.855 611.34442 
L 613.108889 613.362309 
L 617.362778 615.6 
L 621.616667 612.73569 
L 625.870556 610.995143 
L 630.124444 611.854316 
L 634.378333 610.723232 
L 638.632222 611.372262 
L 642.886111 610.557997 
L 647.14 611.474075 
L 651.393889 610.90241 
L 655.647778 611.711099 
L 659.901667 611.130368 
L 664.155556 611.397168 
L 668.409444 611.622664 
L 672.663333 611.612686 
L 676.917222 612.170373 
L 681.171111 611.124212 
L 685.425 611.513473 
L 689.678889 611.005602 
L 693.932778 611.246776 
L 698.186667 610.976285 
L 702.440556 611.191113 
L 706.694444 611.691144 
L 710.948333 610.476972 
L 715.202222 610.712016 
L 719.456111 611.653274 
L 723.71 611.51384 
L 727.963889 611.472756 
L 732.217778 611.776022 
L 736.471667 610.994915 
L 740.725556 612.27116 
L 744.979444 612.843403 
L 749.233333 611.52792 
L 753.487222 612.012184 
L 757.741111 611.428408 
L 761.995 612.05154 
L 766.248889 612.307749 
L 770.502778 612.138045 
L 774.756667 611.367843 
L 779.010556 612.402427 
L 783.264444 611.364039 
L 787.518333 612.168637 
L 791.772222 612.671102 
L 796.026111 612.437588 
L 800.28 611.951992 
L 800.28 604.762 
L 800.28 604.762 
L 796.026111 605.121431 
L 791.772222 605.301584 
L 787.518333 605.213215 
L 783.264444 604.511068 
L 779.010556 605.088093 
L 774.756667 604.462388 
L 770.502778 605.244791 
L 766.248889 605.305606 
L 761.995 604.792776 
L 757.741111 604.693515 
L 753.487222 604.832747 
L 749.233333 604.917264 
L 744.979444 605.093782 
L 740.725556 605.008445 
L 736.471667 604.330843 
L 732.217778 604.568787 
L 727.963889 604.261831 
L 723.71 604.469835 
L 719.456111 604.693135 
L 715.202222 604.114529 
L 710.948333 603.882846 
L 706.694444 604.733593 
L 702.440556 604.569615 
L 698.186667 604.104818 
L 693.932778 604.415771 
L 689.678889 603.925112 
L 685.425 604.389429 
L 681.171111 603.997727 
L 676.917222 604.803533 
L 672.663333 604.183458 
L 668.409444 604.21564 
L 664.155556 604.087837 
L 659.901667 603.727917 
L 655.647778 604.18045 
L 651.393889 603.743183 
L 647.14 604.611592 
L 642.886111 603.872349 
L 638.632222 604.648006 
L 634.378333 603.872096 
L 630.124444 604.323306 
L 625.870556 603.995741 
L 621.616667 604.8933 
L 617.362778 605.669253 
L 613.108889 605.049454 
L 608.855 604.209237 
L 604.601111 604.547028 
L 600.347222 604.374846 
L 596.093333 604.801297 
L 591.839444 603.711125 
L 587.585556 604.479876 
L 583.331667 603.054465 
L 579.077778 604.587892 
L 574.823889 604.746119 
L 570.57 603.897808 
L 566.316111 604.941058 
L 562.062222 605.762068 
L 557.808333 604.866474 
L 553.554444 605.166986 
L 549.300556 605.107196 
L 545.046667 604.776593 
L 540.792778 604.958323 
L 536.538889 604.314957 
L 532.285 605.306744 
L 528.031111 605.206381 
L 523.777222 605.694266 
L 519.523333 605.706297 
L 515.269444 605.07396 
L 511.015556 604.655484 
L 506.761667 605.017423 
L 502.507778 604.923441 
L 498.253889 604.950329 
L 494 604.914318 
L 489.746111 604.801198 
L 485.492222 603.983334 
L 481.238333 604.05073 
L 476.984444 604.689691 
L 472.730556 604.491907 
L 468.476667 603.955817 
L 464.222778 604.214931 
L 459.968889 603.832749 
L 455.715 604.488051 
L 451.461111 603.867 
L 447.207222 604.23515 
L 442.953333 604.109427 
L 438.699444 603.886389 
L 434.445556 604.178887 
L 430.191667 604.147799 
L 425.937778 604.82488 
L 421.683889 604.018677 
L 417.43 604.154448 
L 413.176111 603.635126 
L 408.922222 605.081254 
L 404.668333 603.853717 
L 400.414444 604.682266 
L 396.160556 604.603491 
L 391.906667 604.968293 
L 387.652778 604.605402 
L 383.398889 604.365034 
L 379.145 603.961536 
L 374.891111 604.771942 
L 370.637222 604.231408 
L 366.383333 603.732483 
L 362.129444 603.157123 
L 357.875556 603.848473 
L 353.621667 602.752503 
L 349.367778 603.754086 
L 345.113889 604.03816 
L 340.86 603.792595 
L 336.606111 604.141927 
L 332.352222 603.666202 
L 328.098333 603.86064 
L 323.844444 603.227485 
L 319.590556 603.21762 
L 315.336667 602.89029 
L 311.082778 604.022441 
L 306.828889 603.594092 
L 302.575 602.756261 
L 298.321111 604.438946 
L 294.067222 603.524157 
L 289.813333 603.254577 
L 285.559444 603.408249 
L 281.305556 603.047585 
L 277.051667 602.91873 
L 272.797778 603.06587 
L 268.543889 602.933432 
L 264.29 602.837952 
L 260.036111 602.078558 
L 255.782222 602.372575 
L 251.528333 602.520513 
L 247.274444 603.057961 
L 243.020556 603.15713 
L 238.766667 602.779659 
L 234.512778 602.989809 
L 230.258889 602.608986 
L 226.005 602.506077 
L 221.751111 602.718407 
L 217.497222 601.586785 
L 213.243333 603.268165 
L 208.989444 602.645598 
L 204.735556 601.806411 
L 200.481667 602.57168 
L 196.227778 601.098611 
L 191.973889 601.386542 
L 187.72 601.461383 
L 183.466111 601.501137 
L 179.212222 602.133153 
L 174.958333 600.960213 
L 170.704444 602.359234 
L 166.450556 602.069886 
L 162.196667 600.398175 
L 157.942778 601.987561 
L 153.688889 601.76391 
L 149.435 601.48751 
L 145.181111 601.183223 
L 140.927222 601.906787 
L 136.673333 603.747299 
L 132.419444 601.719964 
L 128.165556 601.737829 
L 123.911667 599.863196 
L 119.657778 600.803324 
L 115.403889 599.359123 
L 111.15 600.869694 
z
" style="fill:#febd2a;fill-opacity:0.2;"/>
   </g>
   <g id="PolyCollection_2">
    <path clip-path="url(#p6a5f16dfca)" d="M 111.15 600.869694 
L 111.15 600.869694 
L 115.403889 602.325777 
L 119.657778 601.103088 
L 123.911667 601.641572 
L 128.165556 600.97545 
L 132.419444 600.280321 
L 136.673333 599.146391 
L 140.927222 597.709058 
L 145.181111 596.925839 
L 149.435 597.949721 
L 153.688889 596.562535 
L 157.942778 595.30445 
L 162.196667 596.40874 
L 166.450556 594.773058 
L 170.704444 595.353389 
L 174.958333 597.617405 
L 179.212222 594.338763 
L 183.466111 593.710837 
L 187.72 593.504721 
L 191.973889 593.78206 
L 196.227778 593.171725 
L 200.481667 591.929141 
L 204.735556 592.860353 
L 208.989444 591.533809 
L 213.243333 591.195822 
L 217.497222 590.978937 
L 221.751111 591.060995 
L 226.005 589.77861 
L 230.258889 587.443847 
L 234.512778 587.948976 
L 238.766667 587.858031 
L 243.020556 587.289964 
L 247.274444 588.847467 
L 251.528333 588.920021 
L 255.782222 588.123513 
L 260.036111 588.350727 
L 264.29 587.348925 
L 268.543889 586.796113 
L 272.797778 585.681444 
L 277.051667 585.689206 
L 281.305556 585.704744 
L 285.559444 583.741526 
L 289.813333 582.921334 
L 294.067222 583.649332 
L 298.321111 583.087788 
L 302.575 580.817193 
L 306.828889 582.639948 
L 311.082778 582.385508 
L 315.336667 581.970942 
L 319.590556 581.352243 
L 323.844444 581.039919 
L 328.098333 581.555028 
L 332.352222 581.334212 
L 336.606111 580.712706 
L 340.86 580.201633 
L 345.113889 579.527436 
L 349.367778 579.526186 
L 353.621667 579.56057 
L 357.875556 579.506964 
L 362.129444 579.638182 
L 366.383333 579.607258 
L 370.637222 579.263427 
L 374.891111 579.634722 
L 379.145 580.068156 
L 383.398889 579.549664 
L 387.652778 579.379739 
L 391.906667 578.448685 
L 396.160556 578.965409 
L 400.414444 578.192297 
L 404.668333 577.578509 
L 408.922222 577.14695 
L 413.176111 578.273261 
L 417.43 577.966259 
L 421.683889 576.57471 
L 425.937778 576.03327 
L 430.191667 575.486984 
L 434.445556 574.992922 
L 438.699444 575.868755 
L 442.953333 576.153971 
L 447.207222 575.431432 
L 451.461111 575.245425 
L 455.715 574.259811 
L 459.968889 574.915404 
L 464.222778 574.621796 
L 468.476667 574.820283 
L 472.730556 574.45915 
L 476.984444 574.797027 
L 481.238333 575.116834 
L 485.492222 573.745066 
L 489.746111 575.297396 
L 494 574.702111 
L 498.253889 573.095639 
L 502.507778 573.924207 
L 506.761667 574.05878 
L 511.015556 574.018849 
L 515.269444 573.997907 
L 519.523333 573.998395 
L 523.777222 573.189098 
L 528.031111 573.124076 
L 532.285 573.990632 
L 536.538889 573.531453 
L 540.792778 573.924224 
L 545.046667 573.066667 
L 549.300556 572.707239 
L 553.554444 573.268178 
L 557.808333 572.770891 
L 562.062222 572.931381 
L 566.316111 572.354641 
L 570.57 571.804876 
L 574.823889 571.833397 
L 579.077778 571.610594 
L 583.331667 571.393396 
L 587.585556 571.760814 
L 591.839444 571.516083 
L 596.093333 571.799752 
L 600.347222 571.796324 
L 604.601111 572.120137 
L 608.855 571.379038 
L 613.108889 570.99402 
L 617.362778 572.93862 
L 621.616667 570.475979 
L 625.870556 569.766361 
L 630.124444 570.630544 
L 634.378333 570.156057 
L 638.632222 569.246559 
L 642.886111 569.819821 
L 647.14 570.285134 
L 651.393889 570.168932 
L 655.647778 569.724076 
L 659.901667 569.915179 
L 664.155556 571.079298 
L 668.409444 570.42024 
L 672.663333 569.547423 
L 676.917222 570.121595 
L 681.171111 569.613826 
L 685.425 568.850064 
L 689.678889 568.115876 
L 693.932778 568.975561 
L 698.186667 566.919521 
L 702.440556 568.576909 
L 706.694444 567.960632 
L 710.948333 567.549457 
L 715.202222 566.955885 
L 719.456111 567.28442 
L 723.71 566.318606 
L 727.963889 567.586731 
L 732.217778 566.531009 
L 736.471667 566.758058 
L 740.725556 566.831536 
L 744.979444 569.655742 
L 749.233333 567.053888 
L 753.487222 567.881488 
L 757.741111 567.363469 
L 761.995 566.582452 
L 766.248889 565.323605 
L 770.502778 566.551782 
L 774.756667 566.921216 
L 779.010556 565.963456 
L 783.264444 566.678699 
L 787.518333 564.882544 
L 791.772222 564.809827 
L 796.026111 564.941161 
L 800.28 564.628026 
L 800.28 545.097683 
L 800.28 545.097683 
L 796.026111 545.794527 
L 791.772222 545.834616 
L 787.518333 545.64387 
L 783.264444 546.775785 
L 779.010556 546.628242 
L 774.756667 547.591473 
L 770.502778 547.564932 
L 766.248889 546.62188 
L 761.995 547.796395 
L 757.741111 548.755878 
L 753.487222 549.074082 
L 749.233333 547.993096 
L 744.979444 549.351007 
L 740.725556 548.546517 
L 736.471667 547.049464 
L 732.217778 547.234743 
L 727.963889 547.429917 
L 723.71 547.14374 
L 719.456111 548.430685 
L 715.202222 547.740027 
L 710.948333 548.702408 
L 706.694444 549.000665 
L 702.440556 550.012412 
L 698.186667 548.245777 
L 693.932778 550.216203 
L 689.678889 549.981866 
L 685.425 550.786713 
L 681.171111 551.720998 
L 676.917222 552.455475 
L 672.663333 552.306576 
L 668.409444 552.33051 
L 664.155556 553.843742 
L 659.901667 552.748587 
L 655.647778 552.215742 
L 651.393889 553.258551 
L 647.14 553.118459 
L 642.886111 552.92268 
L 638.632222 552.204273 
L 634.378333 552.886238 
L 630.124444 553.602831 
L 625.870556 553.050688 
L 621.616667 553.586641 
L 617.362778 554.101454 
L 613.108889 553.533144 
L 608.855 554.155223 
L 604.601111 555.566846 
L 600.347222 555.235142 
L 596.093333 555.831817 
L 591.839444 555.741836 
L 587.585556 556.400574 
L 583.331667 555.80781 
L 579.077778 556.409502 
L 574.823889 556.808002 
L 570.57 556.786124 
L 566.316111 557.085253 
L 562.062222 557.837187 
L 557.808333 557.797241 
L 553.554444 558.726086 
L 549.300556 558.845081 
L 545.046667 559.004595 
L 540.792778 559.186539 
L 536.538889 558.769673 
L 532.285 559.396869 
L 528.031111 558.265786 
L 523.777222 559.061767 
L 519.523333 559.916076 
L 515.269444 560.138009 
L 511.015556 559.861712 
L 506.761667 559.811481 
L 502.507778 559.870593 
L 498.253889 559.447089 
L 494 560.165604 
L 489.746111 561.963759 
L 485.492222 559.948462 
L 481.238333 561.507074 
L 476.984444 560.8661 
L 472.730556 560.582555 
L 468.476667 560.871598 
L 464.222778 561.160322 
L 459.968889 560.839841 
L 455.715 560.576406 
L 451.461111 562.232944 
L 447.207222 562.302674 
L 442.953333 562.601566 
L 438.699444 562.861045 
L 434.445556 562.238453 
L 430.191667 562.694028 
L 425.937778 562.580219 
L 421.683889 563.057231 
L 417.43 564.58233 
L 413.176111 564.855098 
L 408.922222 564.502805 
L 404.668333 564.932627 
L 400.414444 565.373286 
L 396.160556 565.652769 
L 391.906667 565.560086 
L 387.652778 567.138232 
L 383.398889 567.187395 
L 379.145 568.230385 
L 374.891111 567.446656 
L 370.637222 566.542165 
L 366.383333 567.808717 
L 362.129444 567.495354 
L 357.875556 567.447323 
L 353.621667 568.374254 
L 349.367778 568.748334 
L 345.113889 568.719742 
L 340.86 568.652006 
L 336.606111 568.53466 
L 332.352222 568.963058 
L 328.098333 568.930911 
L 323.844444 568.429364 
L 319.590556 569.454125 
L 315.336667 569.529238 
L 311.082778 569.71699 
L 306.828889 570.387728 
L 302.575 568.967137 
L 298.321111 570.286851 
L 294.067222 571.098147 
L 289.813333 570.577245 
L 285.559444 571.123659 
L 281.305556 572.927693 
L 277.051667 574.070195 
L 272.797778 573.669122 
L 268.543889 574.597069 
L 264.29 574.396634 
L 260.036111 575.777439 
L 255.782222 575.395122 
L 251.528333 577.312075 
L 247.274444 576.932378 
L 243.020556 575.925422 
L 238.766667 576.811668 
L 234.512778 577.770343 
L 230.258889 576.915336 
L 226.005 579.02544 
L 221.751111 579.790848 
L 217.497222 579.409716 
L 213.243333 579.743593 
L 208.989444 580.554797 
L 204.735556 581.552413 
L 200.481667 580.39111 
L 196.227778 580.776657 
L 191.973889 582.08844 
L 187.72 583.17679 
L 183.466111 583.527322 
L 179.212222 583.064679 
L 174.958333 586.659565 
L 170.704444 585.32048 
L 166.450556 585.30675 
L 162.196667 587.48364 
L 157.942778 586.627726 
L 153.688889 588.757689 
L 149.435 590.365636 
L 145.181111 589.81426 
L 140.927222 591.320371 
L 136.673333 593.361072 
L 132.419444 595.124519 
L 128.165556 595.856035 
L 123.911667 598.261421 
L 119.657778 598.464038 
L 115.403889 599.702159 
L 111.15 600.869694 
z
" style="fill:#f48849;fill-opacity:0.2;"/>
   </g>
   <g id="PolyCollection_3">
    <path clip-path="url(#p6a5f16dfca)" d="M 111.15 600.869694 
L 111.15 600.869694 
L 115.403889 595.65187 
L 119.657778 590.090723 
L 123.911667 586.148324 
L 128.165556 580.49947 
L 132.419444 576.42475 
L 136.673333 570.53444 
L 140.927222 564.968237 
L 145.181111 561.108524 
L 149.435 554.19991 
L 153.688889 549.914357 
L 157.942778 543.476201 
L 162.196667 537.813499 
L 166.450556 532.665708 
L 170.704444 527.9996 
L 174.958333 524.092178 
L 179.212222 518.662943 
L 183.466111 514.513816 
L 187.72 509.411371 
L 191.973889 506.209042 
L 196.227778 500.043307 
L 200.481667 497.665282 
L 204.735556 494.098997 
L 208.989444 491.05617 
L 213.243333 486.252939 
L 217.497222 481.757102 
L 221.751111 477.557638 
L 226.005 472.430328 
L 230.258889 467.056977 
L 234.512778 463.290168 
L 238.766667 460.02873 
L 243.020556 456.565433 
L 247.274444 452.585232 
L 251.528333 449.335995 
L 255.782222 445.176874 
L 260.036111 441.324483 
L 264.29 438.208324 
L 268.543889 434.437518 
L 272.797778 431.132218 
L 277.051667 427.563028 
L 281.305556 424.757698 
L 285.559444 421.374339 
L 289.813333 417.593254 
L 294.067222 414.25956 
L 298.321111 412.010223 
L 302.575 407.583906 
L 306.828889 405.384417 
L 311.082778 402.820426 
L 315.336667 398.613643 
L 319.590556 395.414191 
L 323.844444 394.191619 
L 328.098333 390.943561 
L 332.352222 389.387719 
L 336.606111 386.539224 
L 340.86 383.98374 
L 345.113889 380.639606 
L 349.367778 378.232322 
L 353.621667 375.428995 
L 357.875556 373.156446 
L 362.129444 371.265633 
L 366.383333 368.71466 
L 370.637222 365.522704 
L 374.891111 363.336892 
L 379.145 359.462917 
L 383.398889 357.069944 
L 387.652778 353.23531 
L 391.906667 350.703658 
L 396.160556 348.06509 
L 400.414444 345.174067 
L 404.668333 341.879935 
L 408.922222 338.197055 
L 413.176111 335.507413 
L 417.43 332.711228 
L 421.683889 330.072347 
L 425.937778 326.973413 
L 430.191667 323.946498 
L 434.445556 321.066364 
L 438.699444 318.489953 
L 442.953333 315.233385 
L 447.207222 312.186222 
L 451.461111 310.659881 
L 455.715 309.144581 
L 459.968889 306.412095 
L 464.222778 304.415573 
L 468.476667 302.792694 
L 472.730556 299.047928 
L 476.984444 296.857246 
L 481.238333 294.659874 
L 485.492222 291.481295 
L 489.746111 290.370139 
L 494 288.07884 
L 498.253889 286.574361 
L 502.507778 285.123976 
L 506.761667 282.794894 
L 511.015556 280.874145 
L 515.269444 279.789613 
L 519.523333 277.281867 
L 523.777222 276.346585 
L 528.031111 274.870445 
L 532.285 273.544311 
L 536.538889 270.897077 
L 540.792778 269.288206 
L 545.046667 267.620015 
L 549.300556 267.428304 
L 553.554444 265.92725 
L 557.808333 263.437719 
L 562.062222 262.569685 
L 566.316111 260.730375 
L 570.57 259.379849 
L 574.823889 258.134621 
L 579.077778 256.923563 
L 583.331667 255.427473 
L 587.585556 253.913477 
L 591.839444 252.921383 
L 596.093333 251.162191 
L 600.347222 249.770616 
L 604.601111 248.886139 
L 608.855 246.926093 
L 613.108889 245.087635 
L 617.362778 244.626743 
L 621.616667 242.722961 
L 625.870556 240.952946 
L 630.124444 239.603835 
L 634.378333 238.204216 
L 638.632222 237.04182 
L 642.886111 235.584466 
L 647.14 233.47764 
L 651.393889 232.430276 
L 655.647778 230.925078 
L 659.901667 228.939726 
L 664.155556 228.045663 
L 668.409444 226.871481 
L 672.663333 225.265788 
L 676.917222 223.476421 
L 681.171111 221.45917 
L 685.425 220.102357 
L 689.678889 217.413116 
L 693.932778 216.470574 
L 698.186667 213.683175 
L 702.440556 212.05907 
L 706.694444 211.160827 
L 710.948333 209.148212 
L 715.202222 208.567262 
L 719.456111 207.647283 
L 723.71 205.812151 
L 727.963889 205.328062 
L 732.217778 204.022315 
L 736.471667 203.142781 
L 740.725556 202.515799 
L 744.979444 203.317556 
L 749.233333 200.67708 
L 753.487222 199.988695 
L 757.741111 199.148512 
L 761.995 197.87107 
L 766.248889 197.430532 
L 770.502778 195.273535 
L 774.756667 194.90319 
L 779.010556 193.988716 
L 783.264444 192.826679 
L 787.518333 191.491447 
L 791.772222 191.064569 
L 796.026111 190.261135 
L 800.28 188.716275 
L 800.28 111.6 
L 800.28 111.6 
L 796.026111 113.356824 
L 791.772222 113.998435 
L 787.518333 114.719487 
L 783.264444 116.510175 
L 779.010556 118.181512 
L 774.756667 118.878383 
L 770.502778 120.063487 
L 766.248889 121.717429 
L 761.995 122.915501 
L 757.741111 124.399529 
L 753.487222 125.379087 
L 749.233333 126.573806 
L 744.979444 128.86873 
L 740.725556 128.9474 
L 736.471667 130.292322 
L 732.217778 131.231093 
L 727.963889 132.331884 
L 723.71 132.886943 
L 719.456111 134.856496 
L 715.202222 135.983079 
L 710.948333 137.281148 
L 706.694444 138.829946 
L 702.440556 139.715126 
L 698.186667 141.770779 
L 693.932778 144.438328 
L 689.678889 145.423394 
L 685.425 148.085649 
L 681.171111 149.726345 
L 676.917222 151.426527 
L 672.663333 153.636328 
L 668.409444 154.701245 
L 664.155556 155.962621 
L 659.901667 156.93911 
L 655.647778 158.397863 
L 651.393889 159.939221 
L 647.14 161.287189 
L 642.886111 163.553802 
L 638.632222 165.21605 
L 634.378333 166.808079 
L 630.124444 167.928191 
L 625.870556 169.82311 
L 621.616667 172.123843 
L 617.362778 176.535005 
L 613.108889 174.948229 
L 608.855 175.77868 
L 604.601111 179.212326 
L 600.347222 180.177822 
L 596.093333 181.755243 
L 591.839444 183.206435 
L 587.585556 185.450798 
L 583.331667 187.277404 
L 579.077778 188.260677 
L 574.823889 189.681468 
L 570.57 192.060809 
L 566.316111 193.66915 
L 562.062222 195.892311 
L 557.808333 197.323275 
L 553.554444 199.643161 
L 549.300556 201.945966 
L 545.046667 202.612989 
L 540.792778 204.681539 
L 536.538889 206.818892 
L 532.285 209.627887 
L 528.031111 211.10522 
L 523.777222 212.823872 
L 519.523333 214.267601 
L 515.269444 216.00834 
L 511.015556 217.709153 
L 506.761667 219.923195 
L 502.507778 223.225108 
L 498.253889 225.074689 
L 494 226.603806 
L 489.746111 230.4424 
L 485.492222 231.793748 
L 481.238333 235.180413 
L 476.984444 237.924999 
L 472.730556 240.43025 
L 468.476667 244.583968 
L 464.222778 246.928032 
L 459.968889 249.266289 
L 455.715 252.785747 
L 451.461111 254.758357 
L 447.207222 258.031131 
L 442.953333 261.3049 
L 438.699444 264.282204 
L 434.445556 267.531391 
L 430.191667 270.450638 
L 425.937778 273.653571 
L 421.683889 276.908457 
L 417.43 279.43905 
L 413.176111 282.903116 
L 408.922222 285.898865 
L 404.668333 291.300886 
L 400.414444 294.979926 
L 396.160556 299.491267 
L 391.906667 302.94764 
L 387.652778 306.21867 
L 383.398889 310.487709 
L 379.145 313.369975 
L 374.891111 317.69003 
L 370.637222 320.127853 
L 366.383333 323.862537 
L 362.129444 327.543913 
L 357.875556 329.515566 
L 353.621667 332.250611 
L 349.367778 335.187244 
L 345.113889 337.376349 
L 340.86 341.717799 
L 336.606111 345.725123 
L 332.352222 348.839254 
L 328.098333 350.570486 
L 323.844444 354.776923 
L 319.590556 356.979105 
L 315.336667 360.2617 
L 311.082778 365.280609 
L 306.828889 367.485486 
L 302.575 371.533182 
L 298.321111 375.959015 
L 294.067222 378.555407 
L 289.813333 381.952767 
L 285.559444 386.384704 
L 281.305556 390.019907 
L 277.051667 394.146652 
L 272.797778 397.653484 
L 268.543889 401.420828 
L 264.29 406.025909 
L 260.036111 408.871916 
L 255.782222 414.144588 
L 251.528333 419.407894 
L 247.274444 424.072121 
L 243.020556 428.857206 
L 238.766667 432.889015 
L 234.512778 437.447386 
L 230.258889 441.088974 
L 226.005 447.0486 
L 221.751111 451.923692 
L 217.497222 456.693461 
L 213.243333 461.897286 
L 208.989444 467.185905 
L 204.735556 470.686574 
L 200.481667 475.461112 
L 196.227778 477.989644 
L 191.973889 484.174786 
L 187.72 487.472471 
L 183.466111 492.428344 
L 179.212222 497.199434 
L 174.958333 501.713782 
L 170.704444 507.199285 
L 166.450556 512.227691 
L 162.196667 518.702813 
L 157.942778 525.048551 
L 153.688889 531.710274 
L 149.435 536.86588 
L 145.181111 544.562302 
L 140.927222 550.369727 
L 136.673333 557.164064 
L 132.419444 565.833141 
L 128.165556 571.819835 
L 123.911667 579.073249 
L 119.657778 585.601223 
L 115.403889 593.443181 
L 111.15 600.869694 
z
" style="fill:#db5c68;fill-opacity:0.2;"/>
   </g>
   <g id="PolyCollection_4">
    <path clip-path="url(#p6a5f16dfca)" d="M 111.15 600.869694 
L 111.15 600.869694 
L 115.403889 600.870861 
L 119.657778 599.661525 
L 123.911667 598.767563 
L 128.165556 597.730711 
L 132.419444 596.109712 
L 136.673333 595.919111 
L 140.927222 595.005519 
L 145.181111 594.332762 
L 149.435 592.938916 
L 153.688889 591.039915 
L 157.942778 591.084568 
L 162.196667 588.794525 
L 166.450556 588.032178 
L 170.704444 586.232859 
L 174.958333 585.161424 
L 179.212222 582.62889 
L 183.466111 581.80647 
L 187.72 581.21384 
L 191.973889 580.015143 
L 196.227778 578.239158 
L 200.481667 578.484711 
L 204.735556 576.679571 
L 208.989444 575.290524 
L 213.243333 573.041088 
L 217.497222 571.308968 
L 221.751111 570.295511 
L 226.005 567.837805 
L 230.258889 567.463227 
L 234.512778 565.822987 
L 238.766667 564.62667 
L 243.020556 563.811128 
L 247.274444 562.876256 
L 251.528333 561.690432 
L 255.782222 559.045761 
L 260.036111 557.610134 
L 264.29 557.212216 
L 268.543889 556.560623 
L 272.797778 554.472785 
L 277.051667 554.074694 
L 281.305556 552.979145 
L 285.559444 550.996699 
L 289.813333 550.177955 
L 294.067222 549.264016 
L 298.321111 548.141205 
L 302.575 545.696386 
L 306.828889 545.186522 
L 311.082778 544.127412 
L 315.336667 543.292012 
L 319.590556 541.596694 
L 323.844444 541.360739 
L 328.098333 540.185633 
L 332.352222 539.664763 
L 336.606111 538.863617 
L 340.86 537.628561 
L 345.113889 535.88812 
L 349.367778 533.998965 
L 353.621667 533.991111 
L 357.875556 532.881314 
L 362.129444 531.910079 
L 366.383333 531.394646 
L 370.637222 529.896067 
L 374.891111 529.755806 
L 379.145 528.030542 
L 383.398889 527.1494 
L 387.652778 527.014376 
L 391.906667 527.05963 
L 396.160556 526.242271 
L 400.414444 525.243613 
L 404.668333 524.934711 
L 408.922222 523.427487 
L 413.176111 523.294966 
L 417.43 522.142882 
L 421.683889 520.722474 
L 425.937778 520.020321 
L 430.191667 519.333879 
L 434.445556 518.386891 
L 438.699444 517.718798 
L 442.953333 517.33404 
L 447.207222 516.617998 
L 451.461111 515.061457 
L 455.715 515.280176 
L 459.968889 513.616443 
L 464.222778 513.213683 
L 468.476667 513.313032 
L 472.730556 512.282873 
L 476.984444 511.82889 
L 481.238333 511.077012 
L 485.492222 511.223344 
L 489.746111 510.024909 
L 494 509.762151 
L 498.253889 509.625057 
L 502.507778 509.227781 
L 506.761667 507.77341 
L 511.015556 507.670423 
L 515.269444 506.988098 
L 519.523333 505.887865 
L 523.777222 505.598765 
L 528.031111 504.88109 
L 532.285 504.602195 
L 536.538889 503.885686 
L 540.792778 502.267002 
L 545.046667 501.488267 
L 549.300556 501.456808 
L 553.554444 500.254437 
L 557.808333 499.219006 
L 562.062222 497.470756 
L 566.316111 497.315077 
L 570.57 496.371815 
L 574.823889 494.832443 
L 579.077778 493.523157 
L 583.331667 491.695478 
L 587.585556 489.975195 
L 591.839444 489.505675 
L 596.093333 488.530516 
L 600.347222 486.678942 
L 604.601111 487.010247 
L 608.855 485.375693 
L 613.108889 484.216478 
L 617.362778 485.700078 
L 621.616667 483.165968 
L 625.870556 481.666875 
L 630.124444 480.943225 
L 634.378333 480.320827 
L 638.632222 478.430677 
L 642.886111 476.419861 
L 647.14 475.857698 
L 651.393889 474.394017 
L 655.647778 474.052351 
L 659.901667 471.252865 
L 664.155556 470.025778 
L 668.409444 469.256309 
L 672.663333 467.520892 
L 676.917222 466.998207 
L 681.171111 465.085346 
L 685.425 463.7753 
L 689.678889 462.529417 
L 693.932778 461.834595 
L 698.186667 460.057107 
L 702.440556 459.663024 
L 706.694444 457.848695 
L 710.948333 457.007009 
L 715.202222 456.162885 
L 719.456111 455.503835 
L 723.71 453.772786 
L 727.963889 452.300302 
L 732.217778 451.07885 
L 736.471667 449.938996 
L 740.725556 448.39915 
L 744.979444 449.829093 
L 749.233333 446.620993 
L 753.487222 445.663982 
L 757.741111 443.758172 
L 761.995 441.991911 
L 766.248889 440.767462 
L 770.502778 439.114399 
L 774.756667 437.350016 
L 779.010556 435.824557 
L 783.264444 434.312364 
L 787.518333 434.003988 
L 791.772222 433.027835 
L 796.026111 431.336837 
L 800.28 430.477486 
L 800.28 338.118276 
L 800.28 338.118276 
L 796.026111 338.664504 
L 791.772222 340.438562 
L 787.518333 341.711221 
L 783.264444 342.202322 
L 779.010556 343.371713 
L 774.756667 344.843659 
L 770.502778 346.489912 
L 766.248889 348.10202 
L 761.995 349.416073 
L 757.741111 351.071047 
L 753.487222 353.190142 
L 749.233333 354.712874 
L 744.979444 357.629188 
L 740.725556 356.616609 
L 736.471667 357.827369 
L 732.217778 358.814938 
L 727.963889 360.356877 
L 723.71 361.269655 
L 719.456111 363.259917 
L 715.202222 364.343256 
L 710.948333 365.147156 
L 706.694444 365.994802 
L 702.440556 367.668658 
L 698.186667 368.395233 
L 693.932778 369.940806 
L 689.678889 370.72772 
L 685.425 371.999158 
L 681.171111 372.127873 
L 676.917222 375.110679 
L 672.663333 375.659214 
L 668.409444 377.054938 
L 664.155556 378.100349 
L 659.901667 379.339534 
L 655.647778 382.14033 
L 651.393889 382.790381 
L 647.14 384.348255 
L 642.886111 384.703136 
L 638.632222 387.344143 
L 634.378333 388.606696 
L 630.124444 389.815702 
L 625.870556 391.09455 
L 621.616667 392.296273 
L 617.362778 394.72193 
L 613.108889 394.194983 
L 608.855 395.50994 
L 604.601111 397.033251 
L 600.347222 396.727876 
L 596.093333 398.887562 
L 591.839444 399.848067 
L 587.585556 401.015036 
L 583.331667 403.288662 
L 579.077778 405.014455 
L 574.823889 406.891176 
L 570.57 408.433647 
L 566.316111 409.684954 
L 562.062222 410.984979 
L 557.808333 411.983054 
L 553.554444 414.153263 
L 549.300556 415.415464 
L 545.046667 416.056037 
L 540.792778 417.205909 
L 536.538889 418.961475 
L 532.285 419.929304 
L 528.031111 420.758939 
L 523.777222 421.959798 
L 519.523333 422.598856 
L 515.269444 423.926261 
L 511.015556 424.724548 
L 506.761667 425.850616 
L 502.507778 427.49446 
L 498.253889 428.038775 
L 494 429.051967 
L 489.746111 429.24206 
L 485.492222 431.449244 
L 481.238333 432.069918 
L 476.984444 433.470238 
L 472.730556 434.606289 
L 468.476667 434.964795 
L 464.222778 435.713924 
L 459.968889 436.65604 
L 455.715 438.11261 
L 451.461111 438.735661 
L 447.207222 439.537904 
L 442.953333 440.289226 
L 438.699444 441.329658 
L 434.445556 441.955388 
L 430.191667 443.061196 
L 425.937778 444.137131 
L 421.683889 445.015361 
L 417.43 446.208023 
L 413.176111 447.937348 
L 408.922222 448.485133 
L 404.668333 449.838932 
L 400.414444 450.470469 
L 396.160556 451.96156 
L 391.906667 453.178108 
L 387.652778 453.45356 
L 383.398889 454.899876 
L 379.145 455.993484 
L 374.891111 458.31121 
L 370.637222 458.709008 
L 366.383333 461.344835 
L 362.129444 463.069815 
L 357.875556 464.22849 
L 353.621667 465.950603 
L 349.367778 466.856579 
L 345.113889 469.102556 
L 340.86 471.125755 
L 336.606111 473.235433 
L 332.352222 474.664428 
L 328.098333 476.132 
L 323.844444 477.850313 
L 319.590556 479.269833 
L 315.336667 480.524582 
L 311.082778 482.889709 
L 306.828889 485.599902 
L 302.575 485.878689 
L 298.321111 488.853785 
L 294.067222 491.418845 
L 289.813333 493.686987 
L 285.559444 495.056071 
L 281.305556 497.862113 
L 277.051667 500.596761 
L 272.797778 501.861962 
L 268.543889 503.854764 
L 264.29 506.242249 
L 260.036111 507.874588 
L 255.782222 510.539329 
L 251.528333 513.994793 
L 247.274444 516.796251 
L 243.020556 519.038563 
L 238.766667 521.406794 
L 234.512778 524.403433 
L 230.258889 527.247271 
L 226.005 528.313337 
L 221.751111 532.520987 
L 217.497222 534.328716 
L 213.243333 536.638377 
L 208.989444 540.183334 
L 204.735556 543.610362 
L 200.481667 546.671293 
L 196.227778 548.454843 
L 191.973889 551.157717 
L 187.72 554.162457 
L 183.466111 555.465128 
L 179.212222 559.001834 
L 174.958333 562.205034 
L 170.704444 564.426608 
L 166.450556 569.053152 
L 162.196667 571.272266 
L 157.942778 574.192524 
L 153.688889 576.167476 
L 149.435 579.853582 
L 145.181111 582.720184 
L 140.927222 585.645284 
L 136.673333 588.363752 
L 132.419444 590.254246 
L 128.165556 593.506454 
L 123.911667 595.663403 
L 119.657778 598.351331 
L 115.403889 600.025517 
L 111.15 600.869694 
z
" style="fill:#b83289;fill-opacity:0.2;"/>
   </g>
   <g id="PolyCollection_5">
    <path clip-path="url(#p6a5f16dfca)" d="M 111.15 600.869694 
L 111.15 600.869694 
L 115.403889 600.890216 
L 119.657778 600.692691 
L 123.911667 601.081731 
L 128.165556 600.698939 
L 132.419444 600.616591 
L 136.673333 599.816213 
L 140.927222 600.344564 
L 145.181111 600.008518 
L 149.435 599.859269 
L 153.688889 599.282374 
L 157.942778 599.176018 
L 162.196667 599.353637 
L 166.450556 599.534144 
L 170.704444 599.3402 
L 174.958333 599.279867 
L 179.212222 598.803678 
L 183.466111 599.023034 
L 187.72 599.007762 
L 191.973889 599.123103 
L 196.227778 598.53163 
L 200.481667 598.829924 
L 204.735556 599.536318 
L 208.989444 599.627543 
L 213.243333 598.230245 
L 217.497222 599.074754 
L 221.751111 599.583485 
L 226.005 598.50352 
L 230.258889 598.810301 
L 234.512778 598.12411 
L 238.766667 598.750172 
L 243.020556 598.421248 
L 247.274444 599.534631 
L 251.528333 598.970871 
L 255.782222 599.203259 
L 260.036111 599.138437 
L 264.29 598.593861 
L 268.543889 598.063175 
L 272.797778 596.774253 
L 277.051667 598.016534 
L 281.305556 597.874002 
L 285.559444 597.672493 
L 289.813333 598.109287 
L 294.067222 597.346663 
L 298.321111 598.059257 
L 302.575 596.760872 
L 306.828889 597.893492 
L 311.082778 598.047988 
L 315.336667 597.783359 
L 319.590556 597.300558 
L 323.844444 598.117181 
L 328.098333 597.828528 
L 332.352222 596.05773 
L 336.606111 597.89648 
L 340.86 597.456651 
L 345.113889 597.36625 
L 349.367778 596.915733 
L 353.621667 597.239771 
L 357.875556 597.46795 
L 362.129444 597.423976 
L 366.383333 596.883357 
L 370.637222 597.009048 
L 374.891111 597.427616 
L 379.145 597.303917 
L 383.398889 597.29542 
L 387.652778 597.130077 
L 391.906667 597.806953 
L 396.160556 597.689864 
L 400.414444 597.517322 
L 404.668333 597.684323 
L 408.922222 597.616887 
L 413.176111 597.441844 
L 417.43 596.35405 
L 421.683889 597.709219 
L 425.937778 597.707836 
L 430.191667 597.760689 
L 434.445556 598.008201 
L 438.699444 597.922782 
L 442.953333 598.087663 
L 447.207222 598.157125 
L 451.461111 597.946529 
L 455.715 598.11783 
L 459.968889 597.765246 
L 464.222778 598.027681 
L 468.476667 598.109364 
L 472.730556 598.255287 
L 476.984444 597.983514 
L 481.238333 597.816909 
L 485.492222 597.546421 
L 489.746111 597.642354 
L 494 597.60732 
L 498.253889 597.690476 
L 502.507778 597.712818 
L 506.761667 597.705245 
L 511.015556 597.676327 
L 515.269444 597.538891 
L 519.523333 597.702997 
L 523.777222 597.693941 
L 528.031111 597.746941 
L 532.285 597.912198 
L 536.538889 597.943819 
L 540.792778 597.553913 
L 545.046667 597.539443 
L 549.300556 598.131375 
L 553.554444 598.158038 
L 557.808333 598.143772 
L 562.062222 598.221708 
L 566.316111 598.146729 
L 570.57 598.478617 
L 574.823889 598.092902 
L 579.077778 597.950739 
L 583.331667 598.392021 
L 587.585556 597.76299 
L 591.839444 597.972012 
L 596.093333 597.747958 
L 600.347222 598.035671 
L 604.601111 598.279195 
L 608.855 597.70671 
L 613.108889 597.982083 
L 617.362778 599.472077 
L 621.616667 598.37679 
L 625.870556 598.106571 
L 630.124444 598.469533 
L 634.378333 598.336462 
L 638.632222 598.303225 
L 642.886111 598.256122 
L 647.14 597.967133 
L 651.393889 597.759092 
L 655.647778 597.934022 
L 659.901667 597.836389 
L 664.155556 598.235769 
L 668.409444 597.96551 
L 672.663333 597.94437 
L 676.917222 598.265193 
L 681.171111 598.002388 
L 685.425 598.014334 
L 689.678889 598.040379 
L 693.932778 598.077996 
L 698.186667 597.649879 
L 702.440556 597.699528 
L 706.694444 598.141541 
L 710.948333 597.596999 
L 715.202222 597.836749 
L 719.456111 597.986425 
L 723.71 597.849757 
L 727.963889 598.16051 
L 732.217778 598.159796 
L 736.471667 597.926709 
L 740.725556 597.929871 
L 744.979444 600.425836 
L 749.233333 598.329647 
L 753.487222 598.725186 
L 757.741111 598.505343 
L 761.995 598.247075 
L 766.248889 599.082008 
L 770.502778 598.719536 
L 774.756667 599.179378 
L 779.010556 599.017793 
L 783.264444 599.408113 
L 787.518333 599.36412 
L 791.772222 599.374321 
L 796.026111 599.647986 
L 800.28 599.609274 
L 800.28 589.805379 
L 800.28 589.805379 
L 796.026111 589.905111 
L 791.772222 589.699385 
L 787.518333 589.633223 
L 783.264444 589.494937 
L 779.010556 589.275 
L 774.756667 589.497375 
L 770.502778 589.185609 
L 766.248889 589.883746 
L 761.995 589.311424 
L 757.741111 589.841631 
L 753.487222 589.913878 
L 749.233333 589.759933 
L 744.979444 591.362367 
L 740.725556 589.449249 
L 736.471667 589.401356 
L 732.217778 589.796913 
L 727.963889 589.680101 
L 723.71 589.379265 
L 719.456111 589.577158 
L 715.202222 589.437501 
L 710.948333 589.083588 
L 706.694444 589.601301 
L 702.440556 589.353915 
L 698.186667 589.1718 
L 693.932778 589.553589 
L 689.678889 589.426401 
L 685.425 589.226924 
L 681.171111 589.324034 
L 676.917222 589.624691 
L 672.663333 589.400939 
L 668.409444 589.34741 
L 664.155556 589.677671 
L 659.901667 589.292685 
L 655.647778 589.664499 
L 651.393889 589.44152 
L 647.14 589.471089 
L 642.886111 589.670226 
L 638.632222 589.816535 
L 634.378333 589.868781 
L 630.124444 589.811018 
L 625.870556 589.676493 
L 621.616667 590.008546 
L 617.362778 591.173862 
L 613.108889 589.662015 
L 608.855 589.257235 
L 604.601111 589.948011 
L 600.347222 589.539581 
L 596.093333 589.559991 
L 591.839444 589.695197 
L 587.585556 589.428901 
L 583.331667 589.913923 
L 579.077778 589.998094 
L 574.823889 589.969588 
L 570.57 590.263748 
L 566.316111 590.104486 
L 562.062222 590.012868 
L 557.808333 589.704392 
L 553.554444 590.149347 
L 549.300556 590.069911 
L 545.046667 589.605397 
L 540.792778 589.998317 
L 536.538889 590.163753 
L 532.285 590.37282 
L 528.031111 590.544789 
L 523.777222 590.245652 
L 519.523333 590.495754 
L 515.269444 590.351245 
L 511.015556 590.45418 
L 506.761667 590.264978 
L 502.507778 590.590405 
L 498.253889 590.503888 
L 494 590.548577 
L 489.746111 590.334795 
L 485.492222 590.078986 
L 481.238333 590.571497 
L 476.984444 590.510401 
L 472.730556 590.351863 
L 468.476667 590.695744 
L 464.222778 590.664311 
L 459.968889 590.698243 
L 455.715 590.903626 
L 451.461111 590.785855 
L 447.207222 591.139665 
L 442.953333 590.937555 
L 438.699444 590.580448 
L 434.445556 590.872176 
L 430.191667 590.682583 
L 425.937778 591.00167 
L 421.683889 590.838663 
L 417.43 590.913599 
L 413.176111 590.798668 
L 408.922222 591.100612 
L 404.668333 591.455896 
L 400.414444 590.918714 
L 396.160556 591.008618 
L 391.906667 591.433043 
L 387.652778 590.96583 
L 383.398889 590.903666 
L 379.145 590.955318 
L 374.891111 591.013694 
L 370.637222 590.745533 
L 366.383333 590.680375 
L 362.129444 591.228258 
L 357.875556 591.350454 
L 353.621667 591.227058 
L 349.367778 591.147231 
L 345.113889 591.573532 
L 340.86 591.712378 
L 336.606111 592.130294 
L 332.352222 591.983629 
L 328.098333 592.29515 
L 323.844444 592.68296 
L 319.590556 591.719585 
L 315.336667 592.129416 
L 311.082778 592.62424 
L 306.828889 592.162085 
L 302.575 592.092565 
L 298.321111 592.166429 
L 294.067222 592.307429 
L 289.813333 592.635643 
L 285.559444 592.43386 
L 281.305556 592.756894 
L 277.051667 592.712141 
L 272.797778 592.454248 
L 268.543889 592.781715 
L 264.29 593.253691 
L 260.036111 593.659674 
L 255.782222 593.829121 
L 251.528333 594.081364 
L 247.274444 594.208556 
L 243.020556 593.797173 
L 238.766667 593.987459 
L 234.512778 594.296495 
L 230.258889 594.337626 
L 226.005 594.679326 
L 221.751111 594.847359 
L 217.497222 594.730837 
L 213.243333 595.069707 
L 208.989444 595.406682 
L 204.735556 595.45081 
L 200.481667 595.892686 
L 196.227778 595.487491 
L 191.973889 595.856337 
L 187.72 596.157321 
L 183.466111 596.03326 
L 179.212222 595.954227 
L 174.958333 596.750406 
L 170.704444 596.738774 
L 166.450556 596.825966 
L 162.196667 596.839806 
L 157.942778 596.642607 
L 153.688889 596.876608 
L 149.435 597.79231 
L 145.181111 597.84278 
L 140.927222 598.518349 
L 136.673333 598.281734 
L 132.419444 598.811938 
L 128.165556 599.270025 
L 123.911667 599.844105 
L 119.657778 599.72922 
L 115.403889 600.138972 
L 111.15 600.869694 
z
" style="fill:#8b0aa5;fill-opacity:0.2;"/>
   </g>
   <g id="matplotlib.axis_1">
    <g id="xtick_1">
     <g id="line2d_1">
      <defs>
       <path d="M 0 0 
L 0 3.5 
" id="m7121171a22" style="stroke:#000000;stroke-width:0.8;"/>
      </defs>
      <g>
       <use style="stroke:#000000;stroke-width:0.8;" x="111.15" xlink:href="#m7121171a22" y="660.8"/>
      </g>
     </g>
     <g id="text_1">
      <!-- 0 -->
      <defs>
       <path d="M 31.78125 66.40625 
Q 24.171875 66.40625 20.328125 58.90625 
Q 16.5 51.421875 16.5 36.375 
Q 16.5 21.390625 20.328125 13.890625 
Q 24.171875 6.390625 31.78125 6.390625 
Q 39.453125 6.390625 43.28125 13.890625 
Q 47.125 21.390625 47.125 36.375 
Q 47.125 51.421875 43.28125 58.90625 
Q 39.453125 66.40625 31.78125 66.40625 
z
M 31.78125 74.21875 
Q 44.046875 74.21875 50.515625 64.515625 
Q 56.984375 54.828125 56.984375 36.375 
Q 56.984375 17.96875 50.515625 8.265625 
Q 44.046875 -1.421875 31.78125 -1.421875 
Q 19.53125 -1.421875 13.0625 8.265625 
Q 6.59375 17.96875 6.59375 36.375 
Q 6.59375 54.828125 13.0625 64.515625 
Q 19.53125 74.21875 31.78125 74.21875 
z
" id="DejaVuSans-30"/>
      </defs>
      <g transform="translate(107.96875 675.398438)scale(0.1 -0.1)">
       <use xlink:href="#DejaVuSans-30"/>
      </g>
     </g>
    </g>
    <g id="xtick_2">
     <g id="line2d_2">
      <g>
       <use style="stroke:#000000;stroke-width:0.8;" x="196.227778" xlink:href="#m7121171a22" y="660.8"/>
      </g>
     </g>
     <g id="text_2">
      <!-- 20 -->
      <defs>
       <path d="M 19.1875 8.296875 
L 53.609375 8.296875 
L 53.609375 0 
L 7.328125 0 
L 7.328125 8.296875 
Q 12.9375 14.109375 22.625 23.890625 
Q 32.328125 33.6875 34.8125 36.53125 
Q 39.546875 41.84375 41.421875 45.53125 
Q 43.3125 49.21875 43.3125 52.78125 
Q 43.3125 58.59375 39.234375 62.25 
Q 35.15625 65.921875 28.609375 65.921875 
Q 23.96875 65.921875 18.8125 64.3125 
Q 13.671875 62.703125 7.8125 59.421875 
L 7.8125 69.390625 
Q 13.765625 71.78125 18.9375 73 
Q 24.125 74.21875 28.421875 74.21875 
Q 39.75 74.21875 46.484375 68.546875 
Q 53.21875 62.890625 53.21875 53.421875 
Q 53.21875 48.921875 51.53125 44.890625 
Q 49.859375 40.875 45.40625 35.40625 
Q 44.1875 33.984375 37.640625 27.21875 
Q 31.109375 20.453125 19.1875 8.296875 
z
" id="DejaVuSans-32"/>
      </defs>
      <g transform="translate(189.865278 675.398438)scale(0.1 -0.1)">
       <use xlink:href="#DejaVuSans-32"/>
       <use x="63.623047" xlink:href="#DejaVuSans-30"/>
      </g>
     </g>
    </g>
    <g id="xtick_3">
     <g id="line2d_3">
      <g>
       <use style="stroke:#000000;stroke-width:0.8;" x="281.305556" xlink:href="#m7121171a22" y="660.8"/>
      </g>
     </g>
     <g id="text_3">
      <!-- 40 -->
      <defs>
       <path d="M 37.796875 64.3125 
L 12.890625 25.390625 
L 37.796875 25.390625 
z
M 35.203125 72.90625 
L 47.609375 72.90625 
L 47.609375 25.390625 
L 58.015625 25.390625 
L 58.015625 17.1875 
L 47.609375 17.1875 
L 47.609375 0 
L 37.796875 0 
L 37.796875 17.1875 
L 4.890625 17.1875 
L 4.890625 26.703125 
z
" id="DejaVuSans-34"/>
      </defs>
      <g transform="translate(274.943056 675.398438)scale(0.1 -0.1)">
       <use xlink:href="#DejaVuSans-34"/>
       <use x="63.623047" xlink:href="#DejaVuSans-30"/>
      </g>
     </g>
    </g>
    <g id="xtick_4">
     <g id="line2d_4">
      <g>
       <use style="stroke:#000000;stroke-width:0.8;" x="366.383333" xlink:href="#m7121171a22" y="660.8"/>
      </g>
     </g>
     <g id="text_4">
      <!-- 60 -->
      <defs>
       <path d="M 33.015625 40.375 
Q 26.375 40.375 22.484375 35.828125 
Q 18.609375 31.296875 18.609375 23.390625 
Q 18.609375 15.53125 22.484375 10.953125 
Q 26.375 6.390625 33.015625 6.390625 
Q 39.65625 6.390625 43.53125 10.953125 
Q 47.40625 15.53125 47.40625 23.390625 
Q 47.40625 31.296875 43.53125 35.828125 
Q 39.65625 40.375 33.015625 40.375 
z
M 52.59375 71.296875 
L 52.59375 62.3125 
Q 48.875 64.0625 45.09375 64.984375 
Q 41.3125 65.921875 37.59375 65.921875 
Q 27.828125 65.921875 22.671875 59.328125 
Q 17.53125 52.734375 16.796875 39.40625 
Q 19.671875 43.65625 24.015625 45.921875 
Q 28.375 48.1875 33.59375 48.1875 
Q 44.578125 48.1875 50.953125 41.515625 
Q 57.328125 34.859375 57.328125 23.390625 
Q 57.328125 12.15625 50.6875 5.359375 
Q 44.046875 -1.421875 33.015625 -1.421875 
Q 20.359375 -1.421875 13.671875 8.265625 
Q 6.984375 17.96875 6.984375 36.375 
Q 6.984375 53.65625 15.1875 63.9375 
Q 23.390625 74.21875 37.203125 74.21875 
Q 40.921875 74.21875 44.703125 73.484375 
Q 48.484375 72.75 52.59375 71.296875 
z
" id="DejaVuSans-36"/>
      </defs>
      <g transform="translate(360.020833 675.398438)scale(0.1 -0.1)">
       <use xlink:href="#DejaVuSans-36"/>
       <use x="63.623047" xlink:href="#DejaVuSans-30"/>
      </g>
     </g>
    </g>
    <g id="xtick_5">
     <g id="line2d_5">
      <g>
       <use style="stroke:#000000;stroke-width:0.8;" x="451.461111" xlink:href="#m7121171a22" y="660.8"/>
      </g>
     </g>
     <g id="text_5">
      <!-- 80 -->
      <defs>
       <path d="M 31.78125 34.625 
Q 24.75 34.625 20.71875 30.859375 
Q 16.703125 27.09375 16.703125 20.515625 
Q 16.703125 13.921875 20.71875 10.15625 
Q 24.75 6.390625 31.78125 6.390625 
Q 38.8125 6.390625 42.859375 10.171875 
Q 46.921875 13.96875 46.921875 20.515625 
Q 46.921875 27.09375 42.890625 30.859375 
Q 38.875 34.625 31.78125 34.625 
z
M 21.921875 38.8125 
Q 15.578125 40.375 12.03125 44.71875 
Q 8.5 49.078125 8.5 55.328125 
Q 8.5 64.0625 14.71875 69.140625 
Q 20.953125 74.21875 31.78125 74.21875 
Q 42.671875 74.21875 48.875 69.140625 
Q 55.078125 64.0625 55.078125 55.328125 
Q 55.078125 49.078125 51.53125 44.71875 
Q 48 40.375 41.703125 38.8125 
Q 48.828125 37.15625 52.796875 32.3125 
Q 56.78125 27.484375 56.78125 20.515625 
Q 56.78125 9.90625 50.3125 4.234375 
Q 43.84375 -1.421875 31.78125 -1.421875 
Q 19.734375 -1.421875 13.25 4.234375 
Q 6.78125 9.90625 6.78125 20.515625 
Q 6.78125 27.484375 10.78125 32.3125 
Q 14.796875 37.15625 21.921875 38.8125 
z
M 18.3125 54.390625 
Q 18.3125 48.734375 21.84375 45.5625 
Q 25.390625 42.390625 31.78125 42.390625 
Q 38.140625 42.390625 41.71875 45.5625 
Q 45.3125 48.734375 45.3125 54.390625 
Q 45.3125 60.0625 41.71875 63.234375 
Q 38.140625 66.40625 31.78125 66.40625 
Q 25.390625 66.40625 21.84375 63.234375 
Q 18.3125 60.0625 18.3125 54.390625 
z
" id="DejaVuSans-38"/>
      </defs>
      <g transform="translate(445.098611 675.398438)scale(0.1 -0.1)">
       <use xlink:href="#DejaVuSans-38"/>
       <use x="63.623047" xlink:href="#DejaVuSans-30"/>
      </g>
     </g>
    </g>
    <g id="xtick_6">
     <g id="line2d_6">
      <g>
       <use style="stroke:#000000;stroke-width:0.8;" x="536.538889" xlink:href="#m7121171a22" y="660.8"/>
      </g>
     </g>
     <g id="text_6">
      <!-- 100 -->
      <defs>
       <path d="M 12.40625 8.296875 
L 28.515625 8.296875 
L 28.515625 63.921875 
L 10.984375 60.40625 
L 10.984375 69.390625 
L 28.421875 72.90625 
L 38.28125 72.90625 
L 38.28125 8.296875 
L 54.390625 8.296875 
L 54.390625 0 
L 12.40625 0 
z
" id="DejaVuSans-31"/>
      </defs>
      <g transform="translate(526.995139 675.398438)scale(0.1 -0.1)">
       <use xlink:href="#DejaVuSans-31"/>
       <use x="63.623047" xlink:href="#DejaVuSans-30"/>
       <use x="127.246094" xlink:href="#DejaVuSans-30"/>
      </g>
     </g>
    </g>
    <g id="xtick_7">
     <g id="line2d_7">
      <g>
       <use style="stroke:#000000;stroke-width:0.8;" x="621.616667" xlink:href="#m7121171a22" y="660.8"/>
      </g>
     </g>
     <g id="text_7">
      <!-- 120 -->
      <g transform="translate(612.072917 675.398438)scale(0.1 -0.1)">
       <use xlink:href="#DejaVuSans-31"/>
       <use x="63.623047" xlink:href="#DejaVuSans-32"/>
       <use x="127.246094" xlink:href="#DejaVuSans-30"/>
      </g>
     </g>
    </g>
    <g id="xtick_8">
     <g id="line2d_8">
      <g>
       <use style="stroke:#000000;stroke-width:0.8;" x="706.694444" xlink:href="#m7121171a22" y="660.8"/>
      </g>
     </g>
     <g id="text_8">
      <!-- 140 -->
      <g transform="translate(697.150694 675.398438)scale(0.1 -0.1)">
       <use xlink:href="#DejaVuSans-31"/>
       <use x="63.623047" xlink:href="#DejaVuSans-34"/>
       <use x="127.246094" xlink:href="#DejaVuSans-30"/>
      </g>
     </g>
    </g>
    <g id="xtick_9">
     <g id="line2d_9">
      <g>
       <use style="stroke:#000000;stroke-width:0.8;" x="791.772222" xlink:href="#m7121171a22" y="660.8"/>
      </g>
     </g>
     <g id="text_9">
      <!-- 160 -->
      <g transform="translate(782.228472 675.398438)scale(0.1 -0.1)">
       <use xlink:href="#DejaVuSans-31"/>
       <use x="63.623047" xlink:href="#DejaVuSans-36"/>
       <use x="127.246094" xlink:href="#DejaVuSans-30"/>
      </g>
     </g>
    </g>
    <g id="text_10">
     <!-- Time (minutes) -->
     <defs>
      <path d="M -0.296875 72.90625 
L 61.375 72.90625 
L 61.375 64.59375 
L 35.5 64.59375 
L 35.5 0 
L 25.59375 0 
L 25.59375 64.59375 
L -0.296875 64.59375 
z
" id="DejaVuSans-54"/>
      <path d="M 9.421875 54.6875 
L 18.40625 54.6875 
L 18.40625 0 
L 9.421875 0 
z
M 9.421875 75.984375 
L 18.40625 75.984375 
L 18.40625 64.59375 
L 9.421875 64.59375 
z
" id="DejaVuSans-69"/>
      <path d="M 52 44.1875 
Q 55.375 50.25 60.0625 53.125 
Q 64.75 56 71.09375 56 
Q 79.640625 56 84.28125 50.015625 
Q 88.921875 44.046875 88.921875 33.015625 
L 88.921875 0 
L 79.890625 0 
L 79.890625 32.71875 
Q 79.890625 40.578125 77.09375 44.375 
Q 74.3125 48.1875 68.609375 48.1875 
Q 61.625 48.1875 57.5625 43.546875 
Q 53.515625 38.921875 53.515625 30.90625 
L 53.515625 0 
L 44.484375 0 
L 44.484375 32.71875 
Q 44.484375 40.625 41.703125 44.40625 
Q 38.921875 48.1875 33.109375 48.1875 
Q 26.21875 48.1875 22.15625 43.53125 
Q 18.109375 38.875 18.109375 30.90625 
L 18.109375 0 
L 9.078125 0 
L 9.078125 54.6875 
L 18.109375 54.6875 
L 18.109375 46.1875 
Q 21.1875 51.21875 25.484375 53.609375 
Q 29.78125 56 35.6875 56 
Q 41.65625 56 45.828125 52.96875 
Q 50 49.953125 52 44.1875 
z
" id="DejaVuSans-6d"/>
      <path d="M 56.203125 29.59375 
L 56.203125 25.203125 
L 14.890625 25.203125 
Q 15.484375 15.921875 20.484375 11.0625 
Q 25.484375 6.203125 34.421875 6.203125 
Q 39.59375 6.203125 44.453125 7.46875 
Q 49.3125 8.734375 54.109375 11.28125 
L 54.109375 2.78125 
Q 49.265625 0.734375 44.1875 -0.34375 
Q 39.109375 -1.421875 33.890625 -1.421875 
Q 20.796875 -1.421875 13.15625 6.1875 
Q 5.515625 13.8125 5.515625 26.8125 
Q 5.515625 40.234375 12.765625 48.109375 
Q 20.015625 56 32.328125 56 
Q 43.359375 56 49.78125 48.890625 
Q 56.203125 41.796875 56.203125 29.59375 
z
M 47.21875 32.234375 
Q 47.125 39.59375 43.09375 43.984375 
Q 39.0625 48.390625 32.421875 48.390625 
Q 24.90625 48.390625 20.390625 44.140625 
Q 15.875 39.890625 15.1875 32.171875 
z
" id="DejaVuSans-65"/>
      <path id="DejaVuSans-20"/>
      <path d="M 31 75.875 
Q 24.46875 64.65625 21.28125 53.65625 
Q 18.109375 42.671875 18.109375 31.390625 
Q 18.109375 20.125 21.3125 9.0625 
Q 24.515625 -2 31 -13.1875 
L 23.1875 -13.1875 
Q 15.875 -1.703125 12.234375 9.375 
Q 8.59375 20.453125 8.59375 31.390625 
Q 8.59375 42.28125 12.203125 53.3125 
Q 15.828125 64.359375 23.1875 75.875 
z
" id="DejaVuSans-28"/>
      <path d="M 54.890625 33.015625 
L 54.890625 0 
L 45.90625 0 
L 45.90625 32.71875 
Q 45.90625 40.484375 42.875 44.328125 
Q 39.84375 48.1875 33.796875 48.1875 
Q 26.515625 48.1875 22.3125 43.546875 
Q 18.109375 38.921875 18.109375 30.90625 
L 18.109375 0 
L 9.078125 0 
L 9.078125 54.6875 
L 18.109375 54.6875 
L 18.109375 46.1875 
Q 21.34375 51.125 25.703125 53.5625 
Q 30.078125 56 35.796875 56 
Q 45.21875 56 50.046875 50.171875 
Q 54.890625 44.34375 54.890625 33.015625 
z
" id="DejaVuSans-6e"/>
      <path d="M 8.5 21.578125 
L 8.5 54.6875 
L 17.484375 54.6875 
L 17.484375 21.921875 
Q 17.484375 14.15625 20.5 10.265625 
Q 23.53125 6.390625 29.59375 6.390625 
Q 36.859375 6.390625 41.078125 11.03125 
Q 45.3125 15.671875 45.3125 23.6875 
L 45.3125 54.6875 
L 54.296875 54.6875 
L 54.296875 0 
L 45.3125 0 
L 45.3125 8.40625 
Q 42.046875 3.421875 37.71875 1 
Q 33.40625 -1.421875 27.6875 -1.421875 
Q 18.265625 -1.421875 13.375 4.4375 
Q 8.5 10.296875 8.5 21.578125 
z
M 31.109375 56 
z
" id="DejaVuSans-75"/>
      <path d="M 18.3125 70.21875 
L 18.3125 54.6875 
L 36.8125 54.6875 
L 36.8125 47.703125 
L 18.3125 47.703125 
L 18.3125 18.015625 
Q 18.3125 11.328125 20.140625 9.421875 
Q 21.96875 7.515625 27.59375 7.515625 
L 36.8125 7.515625 
L 36.8125 0 
L 27.59375 0 
Q 17.1875 0 13.234375 3.875 
Q 9.28125 7.765625 9.28125 18.015625 
L 9.28125 47.703125 
L 2.6875 47.703125 
L 2.6875 54.6875 
L 9.28125 54.6875 
L 9.28125 70.21875 
z
" id="DejaVuSans-74"/>
      <path d="M 44.28125 53.078125 
L 44.28125 44.578125 
Q 40.484375 46.53125 36.375 47.5 
Q 32.28125 48.484375 27.875 48.484375 
Q 21.1875 48.484375 17.84375 46.4375 
Q 14.5 44.390625 14.5 40.28125 
Q 14.5 37.15625 16.890625 35.375 
Q 19.28125 33.59375 26.515625 31.984375 
L 29.59375 31.296875 
Q 39.15625 29.25 43.1875 25.515625 
Q 47.21875 21.78125 47.21875 15.09375 
Q 47.21875 7.46875 41.1875 3.015625 
Q 35.15625 -1.421875 24.609375 -1.421875 
Q 20.21875 -1.421875 15.453125 -0.5625 
Q 10.6875 0.296875 5.421875 2 
L 5.421875 11.28125 
Q 10.40625 8.6875 15.234375 7.390625 
Q 20.0625 6.109375 24.8125 6.109375 
Q 31.15625 6.109375 34.5625 8.28125 
Q 37.984375 10.453125 37.984375 14.40625 
Q 37.984375 18.0625 35.515625 20.015625 
Q 33.0625 21.96875 24.703125 23.78125 
L 21.578125 24.515625 
Q 13.234375 26.265625 9.515625 29.90625 
Q 5.8125 33.546875 5.8125 39.890625 
Q 5.8125 47.609375 11.28125 51.796875 
Q 16.75 56 26.8125 56 
Q 31.78125 56 36.171875 55.265625 
Q 40.578125 54.546875 44.28125 53.078125 
z
" id="DejaVuSans-73"/>
      <path d="M 8.015625 75.875 
L 15.828125 75.875 
Q 23.140625 64.359375 26.78125 53.3125 
Q 30.421875 42.28125 30.421875 31.390625 
Q 30.421875 20.453125 26.78125 9.375 
Q 23.140625 -1.703125 15.828125 -13.1875 
L 8.015625 -13.1875 
Q 14.5 -2 17.703125 9.0625 
Q 20.90625 20.125 20.90625 31.390625 
Q 20.90625 42.671875 17.703125 53.65625 
Q 14.5 64.65625 8.015625 75.875 
z
" id="DejaVuSans-29"/>
     </defs>
     <g transform="translate(364.235625 699.714375)scale(0.24 -0.24)">
      <use xlink:href="#DejaVuSans-54"/>
      <use x="61.037109" xlink:href="#DejaVuSans-69"/>
      <use x="88.820312" xlink:href="#DejaVuSans-6d"/>
      <use x="186.232422" xlink:href="#DejaVuSans-65"/>
      <use x="247.755859" xlink:href="#DejaVuSans-20"/>
      <use x="279.542969" xlink:href="#DejaVuSans-28"/>
      <use x="318.556641" xlink:href="#DejaVuSans-6d"/>
      <use x="415.96875" xlink:href="#DejaVuSans-69"/>
      <use x="443.751953" xlink:href="#DejaVuSans-6e"/>
      <use x="507.130859" xlink:href="#DejaVuSans-75"/>
      <use x="570.509766" xlink:href="#DejaVuSans-74"/>
      <use x="609.71875" xlink:href="#DejaVuSans-65"/>
      <use x="671.242188" xlink:href="#DejaVuSans-73"/>
      <use x="723.341797" xlink:href="#DejaVuSans-29"/>
     </g>
    </g>
   </g>
   <g id="matplotlib.axis_2">
    <g id="ytick_1">
     <g id="line2d_10">
      <defs>
       <path d="M 0 0 
L -3.5 0 
" id="m0023270b2a" style="stroke:#000000;stroke-width:0.8;"/>
      </defs>
      <g>
       <use style="stroke:#000000;stroke-width:0.8;" x="91.15" xlink:href="#m0023270b2a" y="600.869694"/>
      </g>
     </g>
     <g id="text_11">
      <!-- 0 -->
      <g transform="translate(77.7875 604.668913)scale(0.1 -0.1)">
       <use xlink:href="#DejaVuSans-30"/>
      </g>
     </g>
    </g>
    <g id="ytick_2">
     <g id="line2d_11">
      <g>
       <use style="stroke:#000000;stroke-width:0.8;" x="91.15" xlink:href="#m0023270b2a" y="519.650689"/>
      </g>
     </g>
     <g id="text_12">
      <!-- 5 -->
      <defs>
       <path d="M 10.796875 72.90625 
L 49.515625 72.90625 
L 49.515625 64.59375 
L 19.828125 64.59375 
L 19.828125 46.734375 
Q 21.96875 47.46875 24.109375 47.828125 
Q 26.265625 48.1875 28.421875 48.1875 
Q 40.625 48.1875 47.75 41.5 
Q 54.890625 34.8125 54.890625 23.390625 
Q 54.890625 11.625 47.5625 5.09375 
Q 40.234375 -1.421875 26.90625 -1.421875 
Q 22.3125 -1.421875 17.546875 -0.640625 
Q 12.796875 0.140625 7.71875 1.703125 
L 7.71875 11.625 
Q 12.109375 9.234375 16.796875 8.0625 
Q 21.484375 6.890625 26.703125 6.890625 
Q 35.15625 6.890625 40.078125 11.328125 
Q 45.015625 15.765625 45.015625 23.390625 
Q 45.015625 31 40.078125 35.4375 
Q 35.15625 39.890625 26.703125 39.890625 
Q 22.75 39.890625 18.8125 39.015625 
Q 14.890625 38.140625 10.796875 36.28125 
z
" id="DejaVuSans-35"/>
      </defs>
      <g transform="translate(77.7875 523.449908)scale(0.1 -0.1)">
       <use xlink:href="#DejaVuSans-35"/>
      </g>
     </g>
    </g>
    <g id="ytick_3">
     <g id="line2d_12">
      <g>
       <use style="stroke:#000000;stroke-width:0.8;" x="91.15" xlink:href="#m0023270b2a" y="438.431684"/>
      </g>
     </g>
     <g id="text_13">
      <!-- 10 -->
      <g transform="translate(71.425 442.230903)scale(0.1 -0.1)">
       <use xlink:href="#DejaVuSans-31"/>
       <use x="63.623047" xlink:href="#DejaVuSans-30"/>
      </g>
     </g>
    </g>
    <g id="ytick_4">
     <g id="line2d_13">
      <g>
       <use style="stroke:#000000;stroke-width:0.8;" x="91.15" xlink:href="#m0023270b2a" y="357.212679"/>
      </g>
     </g>
     <g id="text_14">
      <!-- 15 -->
      <g transform="translate(71.425 361.011898)scale(0.1 -0.1)">
       <use xlink:href="#DejaVuSans-31"/>
       <use x="63.623047" xlink:href="#DejaVuSans-35"/>
      </g>
     </g>
    </g>
    <g id="ytick_5">
     <g id="line2d_14">
      <g>
       <use style="stroke:#000000;stroke-width:0.8;" x="91.15" xlink:href="#m0023270b2a" y="275.993674"/>
      </g>
     </g>
     <g id="text_15">
      <!-- 20 -->
      <g transform="translate(71.425 279.792893)scale(0.1 -0.1)">
       <use xlink:href="#DejaVuSans-32"/>
       <use x="63.623047" xlink:href="#DejaVuSans-30"/>
      </g>
     </g>
    </g>
    <g id="ytick_6">
     <g id="line2d_15">
      <g>
       <use style="stroke:#000000;stroke-width:0.8;" x="91.15" xlink:href="#m0023270b2a" y="194.774669"/>
      </g>
     </g>
     <g id="text_16">
      <!-- 25 -->
      <g transform="translate(71.425 198.573888)scale(0.1 -0.1)">
       <use xlink:href="#DejaVuSans-32"/>
       <use x="63.623047" xlink:href="#DejaVuSans-35"/>
      </g>
     </g>
    </g>
    <g id="ytick_7">
     <g id="line2d_16">
      <g>
       <use style="stroke:#000000;stroke-width:0.8;" x="91.15" xlink:href="#m0023270b2a" y="113.555664"/>
      </g>
     </g>
     <g id="text_17">
      <!-- 30 -->
      <defs>
       <path d="M 40.578125 39.3125 
Q 47.65625 37.796875 51.625 33 
Q 55.609375 28.21875 55.609375 21.1875 
Q 55.609375 10.40625 48.1875 4.484375 
Q 40.765625 -1.421875 27.09375 -1.421875 
Q 22.515625 -1.421875 17.65625 -0.515625 
Q 12.796875 0.390625 7.625 2.203125 
L 7.625 11.71875 
Q 11.71875 9.328125 16.59375 8.109375 
Q 21.484375 6.890625 26.8125 6.890625 
Q 36.078125 6.890625 40.9375 10.546875 
Q 45.796875 14.203125 45.796875 21.1875 
Q 45.796875 27.640625 41.28125 31.265625 
Q 36.765625 34.90625 28.71875 34.90625 
L 20.21875 34.90625 
L 20.21875 43.015625 
L 29.109375 43.015625 
Q 36.375 43.015625 40.234375 45.921875 
Q 44.09375 48.828125 44.09375 54.296875 
Q 44.09375 59.90625 40.109375 62.90625 
Q 36.140625 65.921875 28.71875 65.921875 
Q 24.65625 65.921875 20.015625 65.03125 
Q 15.375 64.15625 9.8125 62.3125 
L 9.8125 71.09375 
Q 15.4375 72.65625 20.34375 73.4375 
Q 25.25 74.21875 29.59375 74.21875 
Q 40.828125 74.21875 47.359375 69.109375 
Q 53.90625 64.015625 53.90625 55.328125 
Q 53.90625 49.265625 50.4375 45.09375 
Q 46.96875 40.921875 40.578125 39.3125 
z
" id="DejaVuSans-33"/>
      </defs>
      <g transform="translate(71.425 117.354883)scale(0.1 -0.1)">
       <use xlink:href="#DejaVuSans-33"/>
       <use x="63.623047" xlink:href="#DejaVuSans-30"/>
      </g>
     </g>
    </g>
    <g id="text_18">
     <!-- Percentage Area built (%) -->
     <defs>
      <path d="M 19.671875 64.796875 
L 19.671875 37.40625 
L 32.078125 37.40625 
Q 38.96875 37.40625 42.71875 40.96875 
Q 46.484375 44.53125 46.484375 51.125 
Q 46.484375 57.671875 42.71875 61.234375 
Q 38.96875 64.796875 32.078125 64.796875 
z
M 9.8125 72.90625 
L 32.078125 72.90625 
Q 44.34375 72.90625 50.609375 67.359375 
Q 56.890625 61.8125 56.890625 51.125 
Q 56.890625 40.328125 50.609375 34.8125 
Q 44.34375 29.296875 32.078125 29.296875 
L 19.671875 29.296875 
L 19.671875 0 
L 9.8125 0 
z
" id="DejaVuSans-50"/>
      <path d="M 41.109375 46.296875 
Q 39.59375 47.171875 37.8125 47.578125 
Q 36.03125 48 33.890625 48 
Q 26.265625 48 22.1875 43.046875 
Q 18.109375 38.09375 18.109375 28.8125 
L 18.109375 0 
L 9.078125 0 
L 9.078125 54.6875 
L 18.109375 54.6875 
L 18.109375 46.1875 
Q 20.953125 51.171875 25.484375 53.578125 
Q 30.03125 56 36.53125 56 
Q 37.453125 56 38.578125 55.875 
Q 39.703125 55.765625 41.0625 55.515625 
z
" id="DejaVuSans-72"/>
      <path d="M 48.78125 52.59375 
L 48.78125 44.1875 
Q 44.96875 46.296875 41.140625 47.34375 
Q 37.3125 48.390625 33.40625 48.390625 
Q 24.65625 48.390625 19.8125 42.84375 
Q 14.984375 37.3125 14.984375 27.296875 
Q 14.984375 17.28125 19.8125 11.734375 
Q 24.65625 6.203125 33.40625 6.203125 
Q 37.3125 6.203125 41.140625 7.25 
Q 44.96875 8.296875 48.78125 10.40625 
L 48.78125 2.09375 
Q 45.015625 0.34375 40.984375 -0.53125 
Q 36.96875 -1.421875 32.421875 -1.421875 
Q 20.0625 -1.421875 12.78125 6.34375 
Q 5.515625 14.109375 5.515625 27.296875 
Q 5.515625 40.671875 12.859375 48.328125 
Q 20.21875 56 33.015625 56 
Q 37.15625 56 41.109375 55.140625 
Q 45.0625 54.296875 48.78125 52.59375 
z
" id="DejaVuSans-63"/>
      <path d="M 34.28125 27.484375 
Q 23.390625 27.484375 19.1875 25 
Q 14.984375 22.515625 14.984375 16.5 
Q 14.984375 11.71875 18.140625 8.90625 
Q 21.296875 6.109375 26.703125 6.109375 
Q 34.1875 6.109375 38.703125 11.40625 
Q 43.21875 16.703125 43.21875 25.484375 
L 43.21875 27.484375 
z
M 52.203125 31.203125 
L 52.203125 0 
L 43.21875 0 
L 43.21875 8.296875 
Q 40.140625 3.328125 35.546875 0.953125 
Q 30.953125 -1.421875 24.3125 -1.421875 
Q 15.921875 -1.421875 10.953125 3.296875 
Q 6 8.015625 6 15.921875 
Q 6 25.140625 12.171875 29.828125 
Q 18.359375 34.515625 30.609375 34.515625 
L 43.21875 34.515625 
L 43.21875 35.40625 
Q 43.21875 41.609375 39.140625 45 
Q 35.0625 48.390625 27.6875 48.390625 
Q 23 48.390625 18.546875 47.265625 
Q 14.109375 46.140625 10.015625 43.890625 
L 10.015625 52.203125 
Q 14.9375 54.109375 19.578125 55.046875 
Q 24.21875 56 28.609375 56 
Q 40.484375 56 46.34375 49.84375 
Q 52.203125 43.703125 52.203125 31.203125 
z
" id="DejaVuSans-61"/>
      <path d="M 45.40625 27.984375 
Q 45.40625 37.75 41.375 43.109375 
Q 37.359375 48.484375 30.078125 48.484375 
Q 22.859375 48.484375 18.828125 43.109375 
Q 14.796875 37.75 14.796875 27.984375 
Q 14.796875 18.265625 18.828125 12.890625 
Q 22.859375 7.515625 30.078125 7.515625 
Q 37.359375 7.515625 41.375 12.890625 
Q 45.40625 18.265625 45.40625 27.984375 
z
M 54.390625 6.78125 
Q 54.390625 -7.171875 48.1875 -13.984375 
Q 42 -20.796875 29.203125 -20.796875 
Q 24.46875 -20.796875 20.265625 -20.09375 
Q 16.0625 -19.390625 12.109375 -17.921875 
L 12.109375 -9.1875 
Q 16.0625 -11.328125 19.921875 -12.34375 
Q 23.78125 -13.375 27.78125 -13.375 
Q 36.625 -13.375 41.015625 -8.765625 
Q 45.40625 -4.15625 45.40625 5.171875 
L 45.40625 9.625 
Q 42.625 4.78125 38.28125 2.390625 
Q 33.9375 0 27.875 0 
Q 17.828125 0 11.671875 7.65625 
Q 5.515625 15.328125 5.515625 27.984375 
Q 5.515625 40.671875 11.671875 48.328125 
Q 17.828125 56 27.875 56 
Q 33.9375 56 38.28125 53.609375 
Q 42.625 51.21875 45.40625 46.390625 
L 45.40625 54.6875 
L 54.390625 54.6875 
z
" id="DejaVuSans-67"/>
      <path d="M 34.1875 63.1875 
L 20.796875 26.90625 
L 47.609375 26.90625 
z
M 28.609375 72.90625 
L 39.796875 72.90625 
L 67.578125 0 
L 57.328125 0 
L 50.6875 18.703125 
L 17.828125 18.703125 
L 11.1875 0 
L 0.78125 0 
z
" id="DejaVuSans-41"/>
      <path d="M 48.6875 27.296875 
Q 48.6875 37.203125 44.609375 42.84375 
Q 40.53125 48.484375 33.40625 48.484375 
Q 26.265625 48.484375 22.1875 42.84375 
Q 18.109375 37.203125 18.109375 27.296875 
Q 18.109375 17.390625 22.1875 11.75 
Q 26.265625 6.109375 33.40625 6.109375 
Q 40.53125 6.109375 44.609375 11.75 
Q 48.6875 17.390625 48.6875 27.296875 
z
M 18.109375 46.390625 
Q 20.953125 51.265625 25.265625 53.625 
Q 29.59375 56 35.59375 56 
Q 45.5625 56 51.78125 48.09375 
Q 58.015625 40.1875 58.015625 27.296875 
Q 58.015625 14.40625 51.78125 6.484375 
Q 45.5625 -1.421875 35.59375 -1.421875 
Q 29.59375 -1.421875 25.265625 0.953125 
Q 20.953125 3.328125 18.109375 8.203125 
L 18.109375 0 
L 9.078125 0 
L 9.078125 75.984375 
L 18.109375 75.984375 
z
" id="DejaVuSans-62"/>
      <path d="M 9.421875 75.984375 
L 18.40625 75.984375 
L 18.40625 0 
L 9.421875 0 
z
" id="DejaVuSans-6c"/>
      <path d="M 72.703125 32.078125 
Q 68.453125 32.078125 66.03125 28.46875 
Q 63.625 24.859375 63.625 18.40625 
Q 63.625 12.0625 66.03125 8.421875 
Q 68.453125 4.78125 72.703125 4.78125 
Q 76.859375 4.78125 79.265625 8.421875 
Q 81.6875 12.0625 81.6875 18.40625 
Q 81.6875 24.8125 79.265625 28.4375 
Q 76.859375 32.078125 72.703125 32.078125 
z
M 72.703125 38.28125 
Q 80.421875 38.28125 84.953125 32.90625 
Q 89.5 27.546875 89.5 18.40625 
Q 89.5 9.28125 84.9375 3.921875 
Q 80.375 -1.421875 72.703125 -1.421875 
Q 64.890625 -1.421875 60.34375 3.921875 
Q 55.8125 9.28125 55.8125 18.40625 
Q 55.8125 27.59375 60.375 32.9375 
Q 64.9375 38.28125 72.703125 38.28125 
z
M 22.3125 68.015625 
Q 18.109375 68.015625 15.6875 64.375 
Q 13.28125 60.75 13.28125 54.390625 
Q 13.28125 47.953125 15.671875 44.328125 
Q 18.0625 40.71875 22.3125 40.71875 
Q 26.5625 40.71875 28.96875 44.328125 
Q 31.390625 47.953125 31.390625 54.390625 
Q 31.390625 60.6875 28.953125 64.34375 
Q 26.515625 68.015625 22.3125 68.015625 
z
M 66.40625 74.21875 
L 74.21875 74.21875 
L 28.609375 -1.421875 
L 20.796875 -1.421875 
z
M 22.3125 74.21875 
Q 30.03125 74.21875 34.609375 68.875 
Q 39.203125 63.53125 39.203125 54.390625 
Q 39.203125 45.171875 34.640625 39.84375 
Q 30.078125 34.515625 22.3125 34.515625 
Q 14.546875 34.515625 10.03125 39.859375 
Q 5.515625 45.21875 5.515625 54.390625 
Q 5.515625 63.484375 10.046875 68.84375 
Q 14.59375 74.21875 22.3125 74.21875 
z
" id="DejaVuSans-25"/>
     </defs>
     <g transform="translate(62.43375 518.4675)rotate(-90)scale(0.24 -0.24)">
      <use xlink:href="#DejaVuSans-50"/>
      <use x="60.255859" xlink:href="#DejaVuSans-65"/>
      <use x="121.779297" xlink:href="#DejaVuSans-72"/>
      <use x="162.861328" xlink:href="#DejaVuSans-63"/>
      <use x="217.841797" xlink:href="#DejaVuSans-65"/>
      <use x="279.365234" xlink:href="#DejaVuSans-6e"/>
      <use x="342.744141" xlink:href="#DejaVuSans-74"/>
      <use x="381.953125" xlink:href="#DejaVuSans-61"/>
      <use x="443.232422" xlink:href="#DejaVuSans-67"/>
      <use x="506.708984" xlink:href="#DejaVuSans-65"/>
      <use x="568.232422" xlink:href="#DejaVuSans-20"/>
      <use x="600.019531" xlink:href="#DejaVuSans-41"/>
      <use x="668.427734" xlink:href="#DejaVuSans-72"/>
      <use x="709.509766" xlink:href="#DejaVuSans-65"/>
      <use x="771.033203" xlink:href="#DejaVuSans-61"/>
      <use x="832.3125" xlink:href="#DejaVuSans-20"/>
      <use x="864.099609" xlink:href="#DejaVuSans-62"/>
      <use x="927.576172" xlink:href="#DejaVuSans-75"/>
      <use x="990.955078" xlink:href="#DejaVuSans-69"/>
      <use x="1018.738281" xlink:href="#DejaVuSans-6c"/>
      <use x="1046.521484" xlink:href="#DejaVuSans-74"/>
      <use x="1085.730469" xlink:href="#DejaVuSans-20"/>
      <use x="1117.517578" xlink:href="#DejaVuSans-28"/>
      <use x="1156.53125" xlink:href="#DejaVuSans-25"/>
      <use x="1251.550781" xlink:href="#DejaVuSans-29"/>
     </g>
    </g>
   </g>
   <g id="line2d_17">
    <path clip-path="url(#p6a5f16dfca)" d="M 111.15 600.869694 
L 115.403889 600.721087 
L 119.657778 601.863361 
L 123.911667 601.179084 
L 128.165556 602.936765 
L 132.419444 603.510907 
L 136.673333 605.025973 
L 140.927222 603.339438 
L 145.181111 602.41708 
L 153.688889 603.325182 
L 157.942778 603.567081 
L 162.196667 602.683732 
L 166.450556 603.994987 
L 170.704444 604.223718 
L 174.958333 602.474598 
L 179.212222 603.520962 
L 183.466111 603.129689 
L 191.973889 602.99848 
L 196.227778 602.651862 
L 200.481667 603.966231 
L 204.735556 603.676916 
L 213.243333 604.541091 
L 217.497222 602.949073 
L 221.751111 604.121423 
L 230.258889 604.006656 
L 234.512778 604.610301 
L 238.766667 604.586666 
L 243.020556 605.035558 
L 247.274444 604.624783 
L 251.528333 604.348032 
L 255.782222 604.55395 
L 260.036111 603.881277 
L 264.29 605.211398 
L 268.543889 605.036291 
L 277.051667 604.906633 
L 281.305556 605.147943 
L 285.559444 605.702292 
L 289.813333 605.072996 
L 294.067222 605.60915 
L 298.321111 606.969343 
L 302.575 605.038864 
L 306.828889 606.299863 
L 311.082778 607.0948 
L 315.336667 605.508941 
L 319.590556 605.830132 
L 323.844444 605.533804 
L 328.098333 606.202854 
L 332.352222 605.906463 
L 336.606111 606.642172 
L 340.86 606.356186 
L 345.113889 606.606514 
L 349.367778 606.348202 
L 353.621667 604.83081 
L 357.875556 605.991653 
L 362.129444 605.339074 
L 366.383333 606.307762 
L 374.891111 607.298873 
L 379.145 606.219789 
L 383.398889 606.926088 
L 387.652778 607.065933 
L 391.906667 607.641052 
L 396.160556 607.243356 
L 400.414444 607.696755 
L 404.668333 606.391794 
L 408.922222 608.156298 
L 413.176111 606.188628 
L 417.43 607.093955 
L 421.683889 607.06535 
L 425.937778 607.966443 
L 430.191667 607.298164 
L 434.445556 607.568942 
L 438.699444 607.208027 
L 442.953333 607.555017 
L 447.207222 607.210829 
L 451.461111 606.50137 
L 455.715 607.338371 
L 459.968889 606.583654 
L 464.222778 607.58513 
L 472.730556 608.254106 
L 476.984444 608.287433 
L 481.238333 607.258372 
L 485.492222 607.506656 
L 489.746111 608.132394 
L 494 608.345724 
L 502.507778 608.235197 
L 506.761667 608.235459 
L 511.015556 608.049364 
L 515.269444 608.549246 
L 519.523333 609.20424 
L 523.777222 609.34231 
L 528.031111 608.560346 
L 532.285 608.972142 
L 536.538889 607.974621 
L 540.792778 608.793181 
L 545.046667 608.425081 
L 549.300556 608.834055 
L 553.554444 609.127639 
L 557.808333 608.741994 
L 562.062222 609.576868 
L 566.316111 608.636638 
L 570.57 607.403542 
L 574.823889 608.164522 
L 579.077778 608.309315 
L 583.331667 606.256605 
L 587.585556 608.248622 
L 591.839444 607.025695 
L 596.093333 608.46851 
L 600.347222 607.914949 
L 604.601111 608.278421 
L 608.855 607.92183 
L 617.362778 610.822702 
L 621.616667 608.956755 
L 625.870556 607.614468 
L 630.124444 608.217332 
L 634.378333 607.402045 
L 638.632222 608.142609 
L 642.886111 607.320583 
L 647.14 608.171912 
L 651.393889 607.45129 
L 655.647778 608.082417 
L 659.901667 607.539456 
L 664.155556 607.893249 
L 668.409444 608.075385 
L 672.663333 608.059734 
L 676.917222 608.622556 
L 681.171111 607.698754 
L 685.425 608.07056 
L 689.678889 607.593169 
L 693.932778 607.965597 
L 698.186667 607.685752 
L 706.694444 608.346586 
L 710.948333 607.240657 
L 715.202222 607.480021 
L 719.456111 608.310143 
L 727.963889 607.998174 
L 732.217778 608.317536 
L 736.471667 607.791273 
L 740.725556 608.74816 
L 744.979444 609.072016 
L 749.233333 608.358713 
L 753.487222 608.566846 
L 757.741111 608.188585 
L 766.248889 608.932261 
L 770.502778 608.814632 
L 774.756667 607.97005 
L 779.010556 608.830553 
L 783.264444 608.012594 
L 787.518333 608.780694 
L 791.772222 609.099619 
L 796.026111 608.851719 
L 800.28 608.467928 
L 800.28 608.467928 
" style="fill:none;stroke:#febd2a;stroke-linecap:square;stroke-width:1.5;"/>
   </g>
   <g id="line2d_18">
    <path clip-path="url(#p6a5f16dfca)" d="M 111.15 600.869694 
L 115.403889 601.04101 
L 119.657778 599.804802 
L 123.911667 599.960447 
L 128.165556 598.45284 
L 132.419444 597.635133 
L 136.673333 596.275594 
L 140.927222 594.512394 
L 145.181111 593.320566 
L 149.435 594.101949 
L 153.688889 592.633703 
L 157.942778 590.950017 
L 162.196667 591.910169 
L 166.450556 590.029883 
L 170.704444 590.283153 
L 174.958333 592.100295 
L 179.212222 588.707648 
L 183.466111 588.6078 
L 187.72 588.317998 
L 191.973889 587.913962 
L 196.227778 586.858887 
L 200.481667 586.113978 
L 204.735556 587.175578 
L 208.989444 586.07093 
L 213.243333 585.457105 
L 217.497222 585.164036 
L 221.751111 585.398387 
L 226.005 584.356156 
L 230.258889 582.162891 
L 234.512778 582.888157 
L 238.766667 582.320729 
L 243.020556 581.563502 
L 247.274444 582.85399 
L 251.528333 583.084916 
L 255.782222 581.740679 
L 260.036111 582.079669 
L 264.29 580.831281 
L 268.543889 580.60514 
L 272.797778 579.615506 
L 277.051667 579.838943 
L 281.305556 579.263194 
L 285.559444 577.381042 
L 289.813333 576.621566 
L 294.067222 577.327297 
L 298.321111 576.561071 
L 302.575 574.766451 
L 306.828889 576.425217 
L 311.082778 575.98805 
L 319.590556 575.3225 
L 323.844444 574.618792 
L 328.098333 575.164122 
L 332.352222 575.007859 
L 336.606111 574.556775 
L 345.113889 574.026664 
L 349.367778 574.039133 
L 353.621667 573.874528 
L 357.875556 573.374883 
L 366.383333 573.596049 
L 370.637222 572.77782 
L 379.145 574.036919 
L 383.398889 573.222281 
L 387.652778 573.11263 
L 391.906667 571.899399 
L 396.160556 572.182682 
L 408.922222 570.799469 
L 413.176111 571.551291 
L 417.43 571.162108 
L 421.683889 569.759092 
L 425.937778 569.222165 
L 430.191667 568.986405 
L 434.445556 568.608724 
L 438.699444 569.293909 
L 442.953333 569.300202 
L 447.207222 568.80074 
L 451.461111 568.691205 
L 455.715 567.332552 
L 459.968889 567.849595 
L 468.476667 567.797281 
L 472.730556 567.415019 
L 476.984444 567.731258 
L 481.238333 568.254382 
L 485.492222 566.802078 
L 489.746111 568.622112 
L 498.253889 566.132335 
L 502.507778 566.821423 
L 506.761667 566.86069 
L 511.015556 566.770509 
L 515.269444 567.025215 
L 519.523333 566.842771 
L 523.777222 566.04344 
L 528.031111 565.61827 
L 532.285 566.683649 
L 536.538889 565.996726 
L 540.792778 566.446953 
L 545.046667 565.948947 
L 549.300556 565.714578 
L 553.554444 565.928344 
L 557.808333 565.186766 
L 562.062222 565.298613 
L 566.316111 564.64339 
L 570.57 564.250261 
L 574.823889 564.26667 
L 583.331667 563.529216 
L 587.585556 564.013827 
L 591.839444 563.5561 
L 596.093333 563.670763 
L 600.347222 563.452807 
L 604.601111 563.771164 
L 608.855 562.694828 
L 613.108889 562.210908 
L 617.362778 563.508014 
L 621.616667 561.954499 
L 625.870556 561.372817 
L 630.124444 562.042903 
L 634.378333 561.502429 
L 638.632222 560.717887 
L 642.886111 561.312117 
L 647.14 561.695712 
L 651.393889 561.709581 
L 655.647778 560.998899 
L 659.901667 561.353681 
L 664.155556 562.4407 
L 668.409444 561.347506 
L 672.663333 560.916753 
L 676.917222 561.280228 
L 681.171111 560.692823 
L 685.425 559.772793 
L 689.678889 558.981829 
L 693.932778 559.58931 
L 698.186667 557.605739 
L 702.440556 559.231988 
L 706.694444 558.399056 
L 710.948333 558.043759 
L 715.202222 557.36878 
L 719.456111 557.895635 
L 723.71 556.636295 
L 727.963889 557.459359 
L 732.217778 556.79023 
L 736.471667 556.850911 
L 740.725556 557.626971 
L 744.979444 559.556144 
L 749.233333 557.450295 
L 753.487222 558.427831 
L 757.741111 557.975866 
L 761.995 557.117168 
L 766.248889 555.915956 
L 770.502778 557.012129 
L 774.756667 557.181047 
L 779.010556 556.215733 
L 783.264444 556.746739 
L 787.518333 555.307425 
L 796.026111 555.423437 
L 800.28 554.87203 
L 800.28 554.87203 
" style="fill:none;stroke:#f48849;stroke-linecap:square;stroke-width:1.5;"/>
   </g>
   <g id="line2d_19">
    <path clip-path="url(#p6a5f16dfca)" d="M 111.15 600.869694 
L 115.403889 594.52625 
L 119.657778 587.813062 
L 123.911667 582.5277 
L 128.165556 576.090692 
L 132.419444 571.013052 
L 136.673333 563.648124 
L 140.927222 557.555046 
L 145.181111 552.685432 
L 149.435 545.24833 
L 153.688889 540.562425 
L 157.942778 534.020071 
L 166.450556 522.173507 
L 179.212222 507.689817 
L 183.466111 503.215907 
L 187.72 498.120843 
L 191.973889 494.952312 
L 196.227778 488.727355 
L 200.481667 486.224108 
L 204.735556 482.021846 
L 208.989444 478.730162 
L 217.497222 468.77455 
L 221.751111 464.314257 
L 226.005 459.360515 
L 230.258889 453.874682 
L 234.512778 450.10829 
L 238.766667 446.150047 
L 243.020556 442.475577 
L 247.274444 438.169 
L 251.528333 434.18458 
L 255.782222 429.404944 
L 260.036111 424.803271 
L 264.29 421.855293 
L 268.543889 417.669776 
L 285.559444 403.649183 
L 289.813333 399.570426 
L 294.067222 396.084147 
L 298.321111 393.573994 
L 302.575 389.167549 
L 306.828889 385.961789 
L 311.082778 383.519386 
L 315.336667 378.929008 
L 319.590556 375.722737 
L 323.844444 373.953517 
L 328.098333 370.252108 
L 332.352222 368.60204 
L 336.606111 365.645335 
L 340.86 362.303565 
L 345.113889 358.517074 
L 349.367778 356.227068 
L 353.621667 353.524088 
L 357.875556 350.996484 
L 362.129444 348.986381 
L 366.383333 345.90611 
L 370.637222 342.47824 
L 374.891111 340.10521 
L 379.145 336.048163 
L 383.398889 333.352668 
L 387.652778 329.265201 
L 391.906667 326.31969 
L 396.160556 323.232898 
L 400.414444 319.453946 
L 404.668333 316.011689 
L 408.922222 311.423087 
L 413.176111 308.638898 
L 417.43 305.439195 
L 421.683889 302.82601 
L 430.191667 296.534421 
L 438.699444 290.69382 
L 447.207222 284.460688 
L 451.461111 281.961286 
L 455.715 280.273392 
L 459.968889 277.107125 
L 468.476667 273.059307 
L 472.730556 268.987466 
L 476.984444 266.662509 
L 481.238333 264.121895 
L 485.492222 260.948599 
L 489.746111 259.532238 
L 494 256.4692 
L 502.507778 253.33851 
L 506.761667 250.527093 
L 511.015556 248.418075 
L 515.269444 247.163956 
L 519.523333 244.997426 
L 523.777222 243.742014 
L 528.031111 242.043209 
L 532.285 240.769558 
L 536.538889 237.998893 
L 545.046667 234.138115 
L 549.300556 233.665905 
L 553.554444 231.8247 
L 557.808333 229.478123 
L 562.062222 228.241529 
L 566.316111 226.309143 
L 570.57 224.872769 
L 574.823889 222.981559 
L 583.331667 220.462536 
L 591.839444 217.216342 
L 596.093333 215.589671 
L 600.347222 214.19294 
L 604.601111 213.079997 
L 608.855 210.450795 
L 613.108889 209.315555 
L 617.362778 209.768398 
L 621.616667 206.556953 
L 625.870556 204.633775 
L 630.124444 202.923972 
L 638.632222 200.217109 
L 642.886111 198.697816 
L 647.14 196.503954 
L 651.393889 195.261228 
L 659.901667 192.091906 
L 664.155556 191.02323 
L 668.409444 189.772649 
L 672.663333 188.37612 
L 681.171111 184.737281 
L 685.425 183.188245 
L 689.678889 180.475912 
L 693.932778 179.483569 
L 698.186667 176.763372 
L 702.440556 174.921557 
L 706.694444 174.008183 
L 710.948333 172.188109 
L 715.202222 171.32731 
L 719.456111 170.206835 
L 723.71 168.477737 
L 727.963889 167.894544 
L 732.217778 166.581192 
L 740.725556 164.764986 
L 744.979444 165.233104 
L 749.233333 162.554078 
L 757.741111 160.736152 
L 761.995 159.31653 
L 766.248889 158.53666 
L 770.502778 156.609185 
L 779.010556 155.008412 
L 787.518333 152.062609 
L 796.026111 150.643643 
L 800.28 148.999514 
L 800.28 148.999514 
" style="fill:none;stroke:#db5c68;stroke-linecap:square;stroke-width:1.5;"/>
   </g>
   <g id="line2d_20">
    <path clip-path="url(#p6a5f16dfca)" d="M 111.15 600.869694 
L 115.403889 600.449268 
L 119.657778 599.013315 
L 123.911667 597.238335 
L 128.165556 595.616076 
L 132.419444 593.183508 
L 136.673333 592.183973 
L 149.435 586.489857 
L 153.688889 583.743806 
L 157.942778 582.725517 
L 162.196667 580.177895 
L 166.450556 578.715353 
L 170.704444 575.426164 
L 174.958333 573.786149 
L 179.212222 570.903623 
L 183.466111 568.717508 
L 187.72 567.795627 
L 196.227778 563.544672 
L 200.481667 562.81064 
L 208.989444 558.058967 
L 213.243333 555.225374 
L 217.497222 553.192017 
L 221.751111 551.745591 
L 226.005 548.534406 
L 230.258889 547.857297 
L 238.766667 543.457873 
L 243.020556 541.846913 
L 247.274444 540.381657 
L 251.528333 538.415592 
L 255.782222 535.2513 
L 260.036111 533.364261 
L 264.29 532.264334 
L 268.543889 530.788871 
L 272.797778 528.667558 
L 277.051667 527.793758 
L 281.305556 525.924656 
L 285.559444 523.528851 
L 289.813333 522.66441 
L 298.321111 519.239349 
L 302.575 516.548369 
L 306.828889 516.192879 
L 311.082778 514.135603 
L 319.590556 511.196086 
L 323.844444 510.508873 
L 328.098333 508.973371 
L 332.352222 507.947877 
L 336.606111 506.712033 
L 340.86 505.119778 
L 349.367778 501.279005 
L 353.621667 500.608657 
L 357.875556 499.247138 
L 362.129444 498.287661 
L 366.383333 497.096519 
L 370.637222 495.160071 
L 374.891111 494.846588 
L 379.145 492.86331 
L 387.652778 491.001113 
L 391.906667 490.887291 
L 396.160556 489.948325 
L 400.414444 488.703312 
L 404.668333 488.223794 
L 408.922222 486.744503 
L 413.176111 486.425517 
L 421.683889 483.689353 
L 425.937778 482.945561 
L 434.445556 481.007103 
L 442.953333 479.591398 
L 447.207222 478.88037 
L 451.461111 477.791589 
L 455.715 477.633959 
L 459.968889 475.968904 
L 464.222778 475.295497 
L 468.476667 474.953253 
L 476.984444 473.421142 
L 481.238333 472.340377 
L 485.492222 472.018465 
L 489.746111 470.465115 
L 498.253889 469.657737 
L 502.507778 469.184363 
L 506.761667 467.707733 
L 511.015556 467.14408 
L 515.269444 466.426645 
L 519.523333 465.251339 
L 523.777222 464.760328 
L 528.031111 463.754749 
L 532.285 463.281912 
L 536.538889 462.440882 
L 540.792778 460.564678 
L 545.046667 459.681486 
L 549.300556 459.275233 
L 553.554444 458.150981 
L 557.808333 456.522102 
L 562.062222 455.206764 
L 566.316111 454.553337 
L 570.57 453.433467 
L 579.077778 450.26279 
L 583.331667 448.496992 
L 587.585556 446.52078 
L 596.093333 444.750499 
L 600.347222 442.717699 
L 604.601111 442.934392 
L 608.855 441.360359 
L 613.108889 440.113158 
L 617.362778 441.019539 
L 621.616667 438.644464 
L 625.870556 437.244558 
L 634.378333 435.361701 
L 638.632222 433.774301 
L 642.886111 431.514692 
L 647.14 431.058987 
L 651.393889 429.634053 
L 655.647778 428.984398 
L 659.901667 426.24859 
L 664.155556 424.779258 
L 668.409444 423.881677 
L 672.663333 422.358695 
L 676.917222 421.936387 
L 681.171111 419.439093 
L 685.425 418.72144 
L 689.678889 417.478087 
L 693.932778 416.780397 
L 698.186667 415.06775 
L 702.440556 414.424187 
L 706.694444 412.653544 
L 719.456111 410.047046 
L 723.71 408.337314 
L 732.217778 405.661989 
L 736.471667 404.687935 
L 740.725556 403.217406 
L 744.979444 404.328933 
L 749.233333 401.296984 
L 753.487222 400.106084 
L 757.741111 398.00608 
L 761.995 396.322665 
L 766.248889 395.100862 
L 779.010556 390.307669 
L 783.264444 388.931312 
L 787.518333 388.440054 
L 791.772222 387.270426 
L 796.026111 385.561681 
L 800.28 384.890703 
L 800.28 384.890703 
" style="fill:none;stroke:#b83289;stroke-linecap:square;stroke-width:1.5;"/>
   </g>
   <g id="line2d_21">
    <path clip-path="url(#p6a5f16dfca)" d="M 111.15 600.869694 
L 119.657778 600.20762 
L 123.911667 600.460421 
L 128.165556 599.978137 
L 132.419444 599.705931 
L 136.673333 599.047465 
L 140.927222 599.435111 
L 145.181111 598.937777 
L 149.435 598.809403 
L 153.688889 598.073391 
L 157.942778 597.927211 
L 166.450556 598.18759 
L 170.704444 598.042316 
L 174.958333 598.024891 
L 179.212222 597.376229 
L 183.466111 597.532777 
L 187.72 597.572748 
L 191.973889 597.490733 
L 196.227778 597.028517 
L 200.481667 597.353155 
L 204.735556 597.514922 
L 208.989444 597.510182 
L 213.243333 596.633817 
L 221.751111 597.200952 
L 226.005 596.567064 
L 230.258889 596.562661 
L 234.512778 596.175556 
L 238.766667 596.381655 
L 243.020556 596.115829 
L 247.274444 596.881244 
L 251.528333 596.541327 
L 260.036111 596.410744 
L 268.543889 595.447233 
L 272.797778 594.624158 
L 277.051667 595.398886 
L 281.305556 595.330021 
L 285.559444 595.059727 
L 289.813333 595.392532 
L 294.067222 594.854856 
L 298.321111 595.149256 
L 302.575 594.441997 
L 306.828889 595.051692 
L 311.082778 595.334771 
L 319.590556 594.53997 
L 323.844444 595.380865 
L 328.098333 595.060774 
L 332.352222 594.014717 
L 336.606111 595.033141 
L 340.86 594.621105 
L 345.113889 594.515188 
L 349.367778 594.071886 
L 357.875556 594.434308 
L 362.129444 594.362804 
L 366.383333 593.807429 
L 370.637222 593.887108 
L 374.891111 594.224444 
L 387.652778 594.042886 
L 391.906667 594.600052 
L 396.160556 594.337967 
L 400.414444 594.208725 
L 404.668333 594.559291 
L 413.176111 594.125214 
L 417.43 593.616442 
L 421.683889 594.253226 
L 425.937778 594.357754 
L 430.191667 594.220064 
L 434.445556 594.430055 
L 438.699444 594.226694 
L 442.953333 594.490029 
L 447.207222 594.640184 
L 451.461111 594.349818 
L 455.715 594.495069 
L 459.968889 594.204995 
L 468.476667 594.374475 
L 481.238333 594.171523 
L 485.492222 593.819957 
L 489.746111 593.994961 
L 502.507778 594.126274 
L 506.761667 593.971043 
L 511.015556 594.05967 
L 515.269444 593.935113 
L 519.523333 594.067611 
L 523.777222 593.944087 
L 528.031111 594.114163 
L 536.538889 594.033429 
L 545.046667 593.569214 
L 549.300556 594.081066 
L 553.554444 594.146594 
L 557.808333 593.89629 
L 562.062222 594.080908 
L 566.316111 594.074064 
L 570.57 594.325961 
L 574.823889 594.000427 
L 579.077778 593.949848 
L 583.331667 594.118847 
L 587.585556 593.569798 
L 591.839444 593.803885 
L 596.093333 593.603126 
L 600.347222 593.781225 
L 604.601111 594.077594 
L 608.855 593.470531 
L 613.108889 593.809971 
L 617.362778 595.329991 
L 621.616667 594.205796 
L 625.870556 593.913019 
L 630.124444 594.160759 
L 638.632222 594.086522 
L 642.886111 593.971378 
L 647.14 593.731359 
L 651.393889 593.612698 
L 655.647778 593.81389 
L 659.901667 593.572346 
L 664.155556 593.948605 
L 668.409444 593.649672 
L 672.663333 593.66061 
L 676.917222 593.908634 
L 681.171111 593.662572 
L 685.425 593.599701 
L 693.932778 593.821343 
L 698.186667 593.409276 
L 702.440556 593.521847 
L 706.694444 593.86205 
L 710.948333 593.325401 
L 715.202222 593.638562 
L 719.456111 593.784491 
L 723.71 593.609575 
L 727.963889 593.932898 
L 732.217778 593.981027 
L 736.471667 593.637642 
L 740.725556 593.647907 
L 744.979444 595.853438 
L 749.233333 594.020205 
L 753.487222 594.302494 
L 757.741111 594.142631 
L 761.995 593.743651 
L 766.248889 594.459732 
L 770.502778 593.926818 
L 774.756667 594.299348 
L 779.010556 594.103448 
L 783.264444 594.393075 
L 796.026111 594.736398 
L 800.28 594.610156 
L 800.28 594.610156 
" style="fill:none;stroke:#8b0aa5;stroke-linecap:square;stroke-width:1.5;"/>
   </g>
   <g id="patch_3">
    <path d="M 91.15 600.869694 
L 91.15 113.555664 
" style="fill:none;stroke:#000000;stroke-linecap:square;stroke-linejoin:miter;stroke-width:0.8;"/>
   </g>
   <g id="patch_4">
    <path d="M 111.15 660.8 
L 791.772222 660.8 
" style="fill:none;stroke:#000000;stroke-linecap:square;stroke-linejoin:miter;stroke-width:0.8;"/>
   </g>
   <g id="legend_1">
    <g id="patch_5">
     <path d="M 118.15 167.790625 
L 172.376562 167.790625 
Q 174.376562 167.790625 174.376562 165.790625 
L 174.376562 93.4 
Q 174.376562 91.4 172.376562 91.4 
L 118.15 91.4 
Q 116.15 91.4 116.15 93.4 
L 116.15 165.790625 
Q 116.15 167.790625 118.15 167.790625 
z
" style="fill:#ffffff;opacity:0.8;stroke:#cccccc;stroke-linejoin:miter;"/>
    </g>
    <g id="line2d_22">
     <path d="M 120.15 99.498437 
L 140.15 99.498437 
" style="fill:none;stroke:#febd2a;stroke-linecap:square;stroke-width:1.5;"/>
    </g>
    <g id="line2d_23"/>
    <g id="text_19">
     <!-- 0% -->
     <g transform="translate(148.15 102.998437)scale(0.1 -0.1)">
      <use xlink:href="#DejaVuSans-30"/>
      <use x="63.623047" xlink:href="#DejaVuSans-25"/>
     </g>
    </g>
    <g id="line2d_24">
     <path d="M 120.15 114.176562 
L 140.15 114.176562 
" style="fill:none;stroke:#f48849;stroke-linecap:square;stroke-width:1.5;"/>
    </g>
    <g id="line2d_25"/>
    <g id="text_20">
     <!-- 15% -->
     <g transform="translate(148.15 117.676562)scale(0.1 -0.1)">
      <use xlink:href="#DejaVuSans-31"/>
      <use x="63.623047" xlink:href="#DejaVuSans-35"/>
      <use x="127.246094" xlink:href="#DejaVuSans-25"/>
     </g>
    </g>
    <g id="line2d_26">
     <path d="M 120.15 128.854687 
L 140.15 128.854687 
" style="fill:none;stroke:#db5c68;stroke-linecap:square;stroke-width:1.5;"/>
    </g>
    <g id="line2d_27"/>
    <g id="text_21">
     <!-- 30% -->
     <g transform="translate(148.15 132.354687)scale(0.1 -0.1)">
      <use xlink:href="#DejaVuSans-33"/>
      <use x="63.623047" xlink:href="#DejaVuSans-30"/>
      <use x="127.246094" xlink:href="#DejaVuSans-25"/>
     </g>
    </g>
    <g id="line2d_28">
     <path d="M 120.15 143.532812 
L 140.15 143.532812 
" style="fill:none;stroke:#b83289;stroke-linecap:square;stroke-width:1.5;"/>
    </g>
    <g id="line2d_29"/>
    <g id="text_22">
     <!-- 45% -->
     <g transform="translate(148.15 147.032812)scale(0.1 -0.1)">
      <use xlink:href="#DejaVuSans-34"/>
      <use x="63.623047" xlink:href="#DejaVuSans-35"/>
      <use x="127.246094" xlink:href="#DejaVuSans-25"/>
     </g>
    </g>
    <g id="line2d_30">
     <path d="M 120.15 158.210937 
L 140.15 158.210937 
" style="fill:none;stroke:#8b0aa5;stroke-linecap:square;stroke-width:1.5;"/>
    </g>
    <g id="line2d_31"/>
    <g id="text_23">
     <!-- 60% -->
     <g transform="translate(148.15 161.710937)scale(0.1 -0.1)">
      <use xlink:href="#DejaVuSans-36"/>
      <use x="63.623047" xlink:href="#DejaVuSans-30"/>
      <use x="127.246094" xlink:href="#DejaVuSans-25"/>
     </g>
    </g>
   </g>
  </g>
 </g>
 <defs>
  <clipPath id="p6a5f16dfca">
   <rect height="554.4" width="689.13" x="111.15" y="86.4"/>
  </clipPath>
 </defs>
</svg>
